G04 (created by PCBNEW (2013-07-07 BZR 4022)-stable) date 3/25/2016 2:43:32 AM*
%MOIN*%
G04 Gerber Fmt 3.4, Leading zero omitted, Abs format*
%FSLAX34Y34*%
G01*
G70*
G90*
G04 APERTURE LIST*
%ADD10C,0.00590551*%
%ADD11C,0.11811*%
%ADD12R,0.055X0.055*%
%ADD13R,0.11811X0.110236*%
%ADD14C,0.0944882*%
%ADD15C,0.0787402*%
%ADD16C,0.0744094*%
%ADD17O,0.0598425X0.03*%
%ADD18C,0.0433071*%
%ADD19R,0.063X0.071*%
%ADD20R,0.059X0.0512*%
%ADD21R,0.0512X0.059*%
%ADD22C,0.0393701*%
%ADD23R,0.0433071X0.110236*%
%ADD24R,0.110236X0.0433071*%
G04 APERTURE END LIST*
G54D10*
G54D11*
X77400Y-29000D03*
G54D12*
X116400Y-32300D03*
X32800Y-63900D03*
X36800Y-63900D03*
X40800Y-63900D03*
X43800Y-63900D03*
X46800Y-63900D03*
X58900Y-65900D03*
X60900Y-65900D03*
X37800Y-63900D03*
X33800Y-63900D03*
X115400Y-32300D03*
X66900Y-65900D03*
X64900Y-65900D03*
X63900Y-65900D03*
X62900Y-65900D03*
X103500Y-32300D03*
X99700Y-26800D03*
X96700Y-26800D03*
X93700Y-32300D03*
X99800Y-63900D03*
X72000Y-54500D03*
X76000Y-54500D03*
X80000Y-54500D03*
X83000Y-54500D03*
X86000Y-54500D03*
X85800Y-63900D03*
X89800Y-63900D03*
X93800Y-63900D03*
X96800Y-63900D03*
X86700Y-26800D03*
X91700Y-32300D03*
X94700Y-26800D03*
X97700Y-26800D03*
X100700Y-26800D03*
X104500Y-32300D03*
X106500Y-26800D03*
X109500Y-26800D03*
X112500Y-32300D03*
X21900Y-39300D03*
X61500Y-26800D03*
X65500Y-26800D03*
X68500Y-26800D03*
X71500Y-26800D03*
X73500Y-26800D03*
X74500Y-32300D03*
X77500Y-32300D03*
X80700Y-26800D03*
X21900Y-40300D03*
X60500Y-32300D03*
X112700Y-58600D03*
X112700Y-60600D03*
X112700Y-62600D03*
X112700Y-64600D03*
X22000Y-76800D03*
X22000Y-73200D03*
X22000Y-66600D03*
X22000Y-63600D03*
X40500Y-32300D03*
X83700Y-26800D03*
X80500Y-32300D03*
X76500Y-32300D03*
X64500Y-26800D03*
X60500Y-26800D03*
X59500Y-32300D03*
X55500Y-32300D03*
X44500Y-32300D03*
X42500Y-32300D03*
X57900Y-54500D03*
X39500Y-26900D03*
X43500Y-32300D03*
X45500Y-32300D03*
X46500Y-32300D03*
X47500Y-26900D03*
X50500Y-26900D03*
X53500Y-26900D03*
X56500Y-32300D03*
X30300Y-54500D03*
X30300Y-55500D03*
X30300Y-68700D03*
X30300Y-69700D03*
X30300Y-72700D03*
X30300Y-73700D03*
X22000Y-84600D03*
X119300Y-70800D03*
X119300Y-68800D03*
X30250Y-33750D03*
X30300Y-53500D03*
X30300Y-52500D03*
X30300Y-51500D03*
X30300Y-49500D03*
X30300Y-46500D03*
X30300Y-44500D03*
X30300Y-43500D03*
X105000Y-68200D03*
X30300Y-83700D03*
X105000Y-82200D03*
X105000Y-81200D03*
X105000Y-79200D03*
X105000Y-77200D03*
X105000Y-76200D03*
X21900Y-50600D03*
X22000Y-59000D03*
X22000Y-65600D03*
X22000Y-72200D03*
X105000Y-83200D03*
X30300Y-81700D03*
X105000Y-80200D03*
X105000Y-78200D03*
X105000Y-75200D03*
X105000Y-74200D03*
X105000Y-71200D03*
X105000Y-70200D03*
X30300Y-45500D03*
X30300Y-47500D03*
X78000Y-54500D03*
X119700Y-59300D03*
X114600Y-44300D03*
X115600Y-38600D03*
X108200Y-54500D03*
X105200Y-54500D03*
X98800Y-63900D03*
X95800Y-63900D03*
X92800Y-63900D03*
X88800Y-63900D03*
X119700Y-62400D03*
X74000Y-54500D03*
X59900Y-54500D03*
X55900Y-54500D03*
X70900Y-65900D03*
X73900Y-65900D03*
X47900Y-54500D03*
X50900Y-54500D03*
X53900Y-54500D03*
X30300Y-50500D03*
X30300Y-79700D03*
X30300Y-77700D03*
X30300Y-76700D03*
X105000Y-73200D03*
X105000Y-72200D03*
X105000Y-69200D03*
X30300Y-58500D03*
X30300Y-48500D03*
X22000Y-57000D03*
X30300Y-56500D03*
X30300Y-57500D03*
X30300Y-70700D03*
X30300Y-71700D03*
X30300Y-74700D03*
X30300Y-75700D03*
X119400Y-77200D03*
X113500Y-74200D03*
X106200Y-54500D03*
X113500Y-80200D03*
X119400Y-78200D03*
X113500Y-75200D03*
X113500Y-72200D03*
X119700Y-58300D03*
X119700Y-46100D03*
X115600Y-44300D03*
X118700Y-40300D03*
X109200Y-54500D03*
X113500Y-82200D03*
X103200Y-54500D03*
X101200Y-54500D03*
X91800Y-63900D03*
X87800Y-63900D03*
X84800Y-63900D03*
X85000Y-54500D03*
X82000Y-54500D03*
X79000Y-54500D03*
X21900Y-49600D03*
X69500Y-26800D03*
X72500Y-26800D03*
X74500Y-26800D03*
X75500Y-32300D03*
X78500Y-32300D03*
X81700Y-26800D03*
X84700Y-26800D03*
X87700Y-26800D03*
X21900Y-47600D03*
X75000Y-54500D03*
X22000Y-58000D03*
X22000Y-64600D03*
X22000Y-71200D03*
X22000Y-74200D03*
X22000Y-77800D03*
X22000Y-79800D03*
X29250Y-33750D03*
X27250Y-33750D03*
X63500Y-26800D03*
X90700Y-32300D03*
X89700Y-32300D03*
X88700Y-32300D03*
X87700Y-32300D03*
X85700Y-26800D03*
X82700Y-26800D03*
X79500Y-32300D03*
X70500Y-26800D03*
X67500Y-26800D03*
X94700Y-32300D03*
X59500Y-26800D03*
X58500Y-32300D03*
X54500Y-32300D03*
X52500Y-26900D03*
X49500Y-26900D03*
X41500Y-32300D03*
X40500Y-26900D03*
X38500Y-26900D03*
X65900Y-65900D03*
X60900Y-54500D03*
X56900Y-54500D03*
X52900Y-54500D03*
X49900Y-54500D03*
X46900Y-54500D03*
X72900Y-65900D03*
X69900Y-65900D03*
X67900Y-65900D03*
X66500Y-26800D03*
X44800Y-63900D03*
X41800Y-63900D03*
X38800Y-63900D03*
X34800Y-63900D03*
X117400Y-32300D03*
X113500Y-26800D03*
X110500Y-26800D03*
X107500Y-32300D03*
X30300Y-80700D03*
X119700Y-51100D03*
X119700Y-50100D03*
X119700Y-55300D03*
X119700Y-54300D03*
X119700Y-63400D03*
X113500Y-73200D03*
X119400Y-76200D03*
X119400Y-79200D03*
X30300Y-78700D03*
X118700Y-46100D03*
X30300Y-82700D03*
X112700Y-65600D03*
X112700Y-63600D03*
X112700Y-61600D03*
X112700Y-59600D03*
X21900Y-38300D03*
X68900Y-65900D03*
X71900Y-65900D03*
X22000Y-85600D03*
X21900Y-48600D03*
X21900Y-41300D03*
X22000Y-82600D03*
X22000Y-78800D03*
X113500Y-81200D03*
X113500Y-83200D03*
X28250Y-33750D03*
X119300Y-67800D03*
X119300Y-69800D03*
X45900Y-54500D03*
X22000Y-83600D03*
X99200Y-54500D03*
X100200Y-54500D03*
X102200Y-54500D03*
X104200Y-54500D03*
X107200Y-54500D03*
X114600Y-38600D03*
X119700Y-40300D03*
X59900Y-65900D03*
X108500Y-32300D03*
X111500Y-32300D03*
X114500Y-26800D03*
X118400Y-32300D03*
X35800Y-63900D03*
X39800Y-63900D03*
X42800Y-63900D03*
X45800Y-63900D03*
X47800Y-63900D03*
X105500Y-26800D03*
X61900Y-65900D03*
X47500Y-32300D03*
X48500Y-26900D03*
X51500Y-26900D03*
X54500Y-26900D03*
X57500Y-32300D03*
X61500Y-32300D03*
X62500Y-26800D03*
X87000Y-54500D03*
X48900Y-54500D03*
X51900Y-54500D03*
X54900Y-54500D03*
X58900Y-54500D03*
X73000Y-54500D03*
X77000Y-54500D03*
X81000Y-54500D03*
X84000Y-54500D03*
X37500Y-26900D03*
X86800Y-63900D03*
X90800Y-63900D03*
X94800Y-63900D03*
X97800Y-63900D03*
X92700Y-32300D03*
X95700Y-26800D03*
X98700Y-26800D03*
X101700Y-26800D03*
G54D11*
X24700Y-28900D03*
X32300Y-86100D03*
X116800Y-85900D03*
X116800Y-29500D03*
X68500Y-71500D03*
X57400Y-29000D03*
G54D13*
X77927Y-76700D03*
X73872Y-76700D03*
G54D14*
X93900Y-86900D03*
X93900Y-84931D03*
X95868Y-84931D03*
X95868Y-86900D03*
X83300Y-86900D03*
X83300Y-84931D03*
X85268Y-84931D03*
X85268Y-86900D03*
X38200Y-86500D03*
X38200Y-84531D03*
X40168Y-84531D03*
X40168Y-86500D03*
X45000Y-86500D03*
X45000Y-84531D03*
X46968Y-84531D03*
X46968Y-86500D03*
G54D15*
X65700Y-82400D03*
X65700Y-80400D03*
X57700Y-77400D03*
X57700Y-81400D03*
X57700Y-85400D03*
X65700Y-85400D03*
G54D16*
X89800Y-85651D03*
X89800Y-76148D03*
G54D17*
X74788Y-84555D03*
X76600Y-84555D03*
X78411Y-84555D03*
X74788Y-86800D03*
X76600Y-86800D03*
X78411Y-86800D03*
G54D18*
X41915Y-77800D03*
X43884Y-77800D03*
X84200Y-81284D03*
X84200Y-79315D03*
G54D19*
X63750Y-74900D03*
X62650Y-74900D03*
X60750Y-87400D03*
X59650Y-87400D03*
G54D20*
X77900Y-80775D03*
X77900Y-80025D03*
X98200Y-85725D03*
X98200Y-86475D03*
X76600Y-82225D03*
X76600Y-82975D03*
G54D21*
X46475Y-82700D03*
X45725Y-82700D03*
G54D20*
X48300Y-76225D03*
X48300Y-76975D03*
G54D22*
X80187Y-78647D03*
X79400Y-81600D03*
G54D23*
X48289Y-80000D03*
X49510Y-80000D03*
X49510Y-82900D03*
X48289Y-82900D03*
G54D24*
X98200Y-83710D03*
X98200Y-82489D03*
G54D11*
X88200Y-71500D03*
X48800Y-71500D03*
X36300Y-75700D03*
X97400Y-75900D03*
M02*
