M48
INCH,TZ
T1C0.024
T2C0.025
T3C0.032
T4C0.035
T5C0.038
T6C0.040
T7C0.047
T8C0.055
T9C0.059
T10C0.067
T11C0.071
T12C0.073
T13C0.118
T14C0.173
%
G90
G05
T1
X40863Y-28100
X44800Y-28100
X95500Y-12600
X99437Y-12600
T2
X32000Y-25900
X36000Y-31300
X37000Y-30300
X38700Y-24400
X56100Y-16900
X56900Y-14700
X57900Y-24200
X60200Y-24200
T3
X68300Y-14000
X68300Y-17000
X69300Y-14000
X69300Y-17000
X70300Y-14000
X70300Y-17000
X71300Y-14000
X71300Y-17000
T4
X19666Y-11900
X22934Y-11900
T5
X8500Y-28700
X9600Y-32800
X12400Y-11200
X13200Y-23100
X13900Y-34100
X14000Y-24900
X15100Y-26500
X16500Y-24700
X17300Y-27500
X18100Y-25300
X18600Y-28400
X18600Y-29900
X18700Y-24800
X20000Y-19200
X20200Y-17900
X20400Y-23000
X21500Y-26300
X23900Y-21000
X24600Y-26400
X24600Y-33100
X25700Y-26400
X25700Y-32000
X26100Y-21000
X26300Y-25600
X29300Y-21400
X29600Y-25500
X31100Y-23300
X32100Y-33100
X32600Y-32000
X32800Y-20400
X33000Y-26000
X33300Y-22300
X34100Y-21600
X34300Y-24700
X35100Y-22200
X35300Y-23100
X37200Y-26100
X38800Y-25300
X42800Y-25000
X43600Y-16800
X47700Y-18900
X49100Y-30900
X49800Y-21900
X51200Y-20500
X51800Y-28400
X51800Y-32000
X52200Y-30100
X52300Y-26000
X52500Y-16700
X52600Y-23700
X52600Y-28400
X53300Y-20500
X55800Y-19200
X58000Y-20500
X58100Y-16100
X58500Y-15300
X58800Y-25600
X59700Y-25600
X60200Y-27000
X60800Y-19800
X60900Y-17300
X61000Y-21800
X61500Y-9700
X62100Y-27500
X62200Y-19100
X63100Y-16100
X63300Y-26600
X63900Y-11200
X64000Y-14500
X65900Y-23300
X66200Y-20100
X69100Y-26600
X69300Y-20700
X69300Y-23800
X69400Y-27500
X71500Y-18100
X74000Y-15700
X74100Y-14600
X92200Y-9500
T6
X68000Y-9500
X69000Y-9500
X70000Y-9500
X75300Y-9500
X76300Y-9500
X77300Y-9500
T7
X20100Y-33800
X21100Y-33800
X56100Y-8300
X57100Y-8300
X58100Y-8300
X59100Y-8300
T8
X16148Y-15100
X25652Y-15100
X92400Y-13748
X92400Y-23252
T9
X33411Y-15600
X34198Y-13238
X34198Y-17962
X39002Y-13238
X39002Y-17962
X40311Y-22600
X41098Y-20238
X41098Y-24962
X45902Y-20238
X45902Y-24962
T10
X26650Y-10300
X28800Y-10300
X30950Y-10300
T11
X6676Y-15100
X6676Y-19800
X12700Y-15100
X12700Y-19800
X101900Y-12600
X101900Y-22000
X107924Y-12600
X107924Y-22000
T12
X6600Y-29831
X6600Y-31800
X7700Y-9031
X7700Y-11000
X8569Y-29831
X8569Y-31800
X9669Y-9031
X9669Y-11000
X11000Y-29831
X11000Y-31800
X12969Y-29831
X12969Y-31800
X15300Y-29831
X15300Y-31800
X17269Y-29831
X17269Y-31800
X36100Y-27231
X36100Y-29200
X38069Y-27231
X38069Y-29200
X48100Y-12131
X48100Y-14100
X50069Y-12131
X50069Y-14100
X74200Y-26331
X74200Y-28300
X76169Y-26331
X76169Y-28300
X85431Y-7931
X85431Y-9900
X86231Y-14289
X86231Y-16257
X86231Y-24131
X86231Y-26100
X87400Y-7931
X87400Y-9900
X88200Y-14289
X88200Y-16257
X88200Y-24131
X88200Y-26100
T13
X16500Y-20300
X66200Y-31600
X106400Y-33100
X106500Y-7800
T14
X44183Y-11857
X44183Y-31543
X79617Y-11857
X79617Y-31543
T0
M30
