M48
INCH,TZ
T1C0.020
T2C0.033
T3C0.047
T4C0.055
T5C0.059
T6C0.073
T7C0.118
%
G90
G05
T2
X41916Y-77800
X43884Y-77800
X79400Y-81600
X80187Y-78647
X84200Y-79316
X84200Y-81284
T3
X21900Y-38300
X21900Y-39300
X21900Y-40300
X21900Y-41300
X21900Y-47600
X21900Y-48600
X21900Y-49600
X21900Y-50600
X22000Y-57000
X22000Y-58000
X22000Y-59000
X22000Y-63600
X22000Y-64600
X22000Y-65600
X22000Y-66600
X22000Y-71200
X22000Y-72200
X22000Y-73200
X22000Y-74200
X22000Y-76800
X22000Y-77800
X22000Y-78800
X22000Y-79800
X22000Y-82600
X22000Y-83600
X22000Y-84600
X22000Y-85600
X27250Y-33750
X28250Y-33750
X29250Y-33750
X30250Y-33750
X30300Y-43500
X30300Y-44500
X30300Y-45500
X30300Y-46500
X30300Y-47500
X30300Y-48500
X30300Y-49500
X30300Y-50500
X30300Y-51500
X30300Y-52500
X30300Y-53500
X30300Y-54500
X30300Y-55500
X30300Y-56500
X30300Y-57500
X30300Y-58500
X30300Y-68700
X30300Y-69700
X30300Y-70700
X30300Y-71700
X30300Y-72700
X30300Y-73700
X30300Y-74700
X30300Y-75700
X30300Y-76700
X30300Y-77700
X30300Y-78700
X30300Y-79700
X30300Y-80700
X30300Y-81700
X30300Y-82700
X30300Y-83700
X32800Y-63900
X33800Y-63900
X34800Y-63900
X35800Y-63900
X36800Y-63900
X37500Y-26900
X37800Y-63900
X38500Y-26900
X38800Y-63900
X39500Y-26900
X39800Y-63900
X40500Y-26900
X40500Y-32300
X40800Y-63900
X41500Y-32300
X41800Y-63900
X42500Y-32300
X42800Y-63900
X43500Y-32300
X43800Y-63900
X44500Y-32300
X44800Y-63900
X45500Y-32300
X45800Y-63900
X45900Y-54500
X46500Y-32300
X46800Y-63900
X46900Y-54500
X47500Y-26900
X47500Y-32300
X47800Y-63900
X47900Y-54500
X48500Y-26900
X48900Y-54500
X49500Y-26900
X49900Y-54500
X50500Y-26900
X50900Y-54500
X51500Y-26900
X51900Y-54500
X52500Y-26900
X52900Y-54500
X53500Y-26900
X53900Y-54500
X54500Y-26900
X54500Y-32300
X54900Y-54500
X55500Y-32300
X55900Y-54500
X56500Y-32300
X56900Y-54500
X57500Y-32300
X57900Y-54500
X58500Y-32300
X58900Y-54500
X58900Y-65900
X59500Y-26800
X59500Y-32300
X59900Y-54500
X59900Y-65900
X60500Y-26800
X60500Y-32300
X60900Y-54500
X60900Y-65900
X61500Y-26800
X61500Y-32300
X61900Y-65900
X62500Y-26800
X62900Y-65900
X63500Y-26800
X63900Y-65900
X64500Y-26800
X64900Y-65900
X65500Y-26800
X65900Y-65900
X66500Y-26800
X66900Y-65900
X67500Y-26800
X67900Y-65900
X68500Y-26800
X68900Y-65900
X69500Y-26800
X69900Y-65900
X70500Y-26800
X70900Y-65900
X71500Y-26800
X71900Y-65900
X72000Y-54500
X72500Y-26800
X72900Y-65900
X73000Y-54500
X73500Y-26800
X73900Y-65900
X74000Y-54500
X74500Y-26800
X74500Y-32300
X75000Y-54500
X75500Y-32300
X76000Y-54500
X76500Y-32300
X77000Y-54500
X77500Y-32300
X78000Y-54500
X78500Y-32300
X79000Y-54500
X79500Y-32300
X80000Y-54500
X80500Y-32300
X80700Y-26800
X81000Y-54500
X81700Y-26800
X82000Y-54500
X82700Y-26800
X83000Y-54500
X83700Y-26800
X84000Y-54500
X84700Y-26800
X84800Y-63900
X85000Y-54500
X85700Y-26800
X85800Y-63900
X86000Y-54500
X86700Y-26800
X86800Y-63900
X87000Y-54500
X87700Y-26800
X87700Y-32300
X87800Y-63900
X88700Y-32300
X88800Y-63900
X89700Y-32300
X89800Y-63900
X90700Y-32300
X90800Y-63900
X91700Y-32300
X91800Y-63900
X92700Y-32300
X92800Y-63900
X93700Y-32300
X93800Y-63900
X94700Y-26800
X94700Y-32300
X94800Y-63900
X95700Y-26800
X95800Y-63900
X96700Y-26800
X96800Y-63900
X97700Y-26800
X97800Y-63900
X98700Y-26800
X98800Y-63900
X99200Y-54500
X99700Y-26800
X99800Y-63900
X100200Y-54500
X100700Y-26800
X101200Y-54500
X101700Y-26800
X102200Y-54500
X103200Y-54500
X103500Y-32300
X104200Y-54500
X104500Y-32300
X105000Y-68200
X105000Y-69200
X105000Y-70200
X105000Y-71200
X105000Y-72200
X105000Y-73200
X105000Y-74200
X105000Y-75200
X105000Y-76200
X105000Y-77200
X105000Y-78200
X105000Y-79200
X105000Y-80200
X105000Y-81200
X105000Y-82200
X105000Y-83200
X105200Y-54500
X105500Y-26800
X106200Y-54500
X106500Y-26800
X107200Y-54500
X107500Y-32300
X108200Y-54500
X108500Y-32300
X109200Y-54500
X109500Y-26800
X110500Y-26800
X111500Y-32300
X112500Y-32300
X112700Y-58600
X112700Y-59600
X112700Y-60600
X112700Y-61600
X112700Y-62600
X112700Y-63600
X112700Y-64600
X112700Y-65600
X113500Y-26800
X113500Y-72200
X113500Y-73200
X113500Y-74200
X113500Y-75200
X113500Y-80200
X113500Y-81200
X113500Y-82200
X113500Y-83200
X114500Y-26800
X114600Y-38600
X114600Y-44300
X115400Y-32300
X115600Y-38600
X115600Y-44300
X116400Y-32300
X117400Y-32300
X118400Y-32300
X118700Y-40300
X118700Y-46100
X119300Y-67800
X119300Y-68800
X119300Y-69800
X119300Y-70800
X119400Y-76200
X119400Y-77200
X119400Y-78200
X119400Y-79200
X119700Y-40300
X119700Y-46100
X119700Y-50100
X119700Y-51100
X119700Y-54300
X119700Y-55300
X119700Y-58300
X119700Y-59300
X119700Y-62400
X119700Y-63400
T4
X89800Y-76148
X89800Y-85652
T5
X57700Y-77400
X57700Y-81400
X57700Y-85400
X65700Y-80400
X65700Y-82400
X65700Y-85400
T6
X38200Y-84531
X38200Y-86500
X40169Y-84531
X40169Y-86500
X45000Y-84531
X45000Y-86500
X46969Y-84531
X46969Y-86500
X83300Y-84931
X83300Y-86900
X85269Y-84931
X85269Y-86900
X93900Y-84931
X93900Y-86900
X95869Y-84931
X95869Y-86900
T7
X24700Y-28900
X32300Y-86100
X36300Y-75700
X48800Y-71500
X57400Y-29000
X68500Y-71500
X77400Y-29000
X88200Y-71500
X97400Y-75900
X116800Y-29500
X116800Y-85900
T1
X74639Y-84556G85X74939Y-84556
G05
X74639Y-86800G85X74939Y-86800
G05
X76450Y-84556G85X76750Y-84556
G05
X76450Y-86800G85X76750Y-86800
G05
X78261Y-84556G85X78561Y-84556
G05
X78261Y-86800G85X78561Y-86800
G05
T0
M30
