G04 (created by PCBNEW (2013-07-07 BZR 4022)-stable) date 3/11/2016 5:41:05 AM*
%MOIN*%
G04 Gerber Fmt 3.4, Leading zero omitted, Abs format*
%FSLAX34Y34*%
G01*
G70*
G90*
G04 APERTURE LIST*
%ADD10C,0.00590551*%
%ADD11C,0.0944882*%
%ADD12R,0.0315X0.0394*%
%ADD13R,0.0394X0.0315*%
%ADD14R,0.045X0.02*%
%ADD15R,0.02X0.045*%
%ADD16R,0.05X0.025*%
%ADD17R,0.025X0.05*%
%ADD18C,0.0866142*%
%ADD19C,0.0744094*%
%ADD20C,0.0314961*%
%ADD21R,0.055X0.055*%
%ADD22C,0.055*%
%ADD23C,0.177165*%
%ADD24R,0.071X0.063*%
%ADD25R,0.063X0.071*%
%ADD26R,0.059X0.0512*%
%ADD27R,0.0512X0.059*%
%ADD28R,0.0394X0.0354*%
%ADD29R,0.0354X0.0394*%
%ADD30R,0.0433071X0.110236*%
%ADD31R,0.110236X0.0433071*%
%ADD32R,0.023622X0.0787402*%
%ADD33C,0.07*%
%ADD34R,0.07X0.07*%
%ADD35C,0.0472441*%
%ADD36R,0.0468504X0.129921*%
%ADD37C,0.11811*%
%ADD38C,0.0525197*%
%ADD39C,0.035*%
%ADD40C,0.0201575*%
%ADD41C,0.04*%
%ADD42C,0.0601575*%
%ADD43C,0.01*%
%ADD44C,0.15*%
%ADD45C,0.201575*%
G04 APERTURE END LIST*
G54D10*
G54D11*
X26650Y-10300D03*
X28800Y-10300D03*
X30949Y-10300D03*
G54D12*
X32500Y-27733D03*
X32125Y-26867D03*
X32875Y-26867D03*
G54D13*
X30133Y-26600D03*
X29267Y-26975D03*
X29267Y-26225D03*
X61133Y-10600D03*
X60267Y-10975D03*
X60267Y-10225D03*
X55067Y-18200D03*
X55933Y-17825D03*
X55933Y-18575D03*
G54D14*
X32100Y-21650D03*
X32100Y-22150D03*
X32100Y-22650D03*
X32100Y-23150D03*
X32100Y-23650D03*
X32100Y-24150D03*
X32100Y-24650D03*
X32100Y-25150D03*
X36100Y-25150D03*
X36100Y-24650D03*
X36100Y-24150D03*
X36100Y-23650D03*
X36100Y-23150D03*
X36100Y-22650D03*
X36100Y-22150D03*
X36100Y-21650D03*
X23100Y-19550D03*
X23100Y-20050D03*
X23100Y-20550D03*
X23100Y-21050D03*
X23100Y-21550D03*
X23100Y-22050D03*
X23100Y-22550D03*
X23100Y-23050D03*
X27100Y-23050D03*
X27100Y-22550D03*
X27100Y-22050D03*
X27100Y-21550D03*
X27100Y-21050D03*
X27100Y-20550D03*
X27100Y-20050D03*
X27100Y-19550D03*
G54D15*
X54150Y-18900D03*
X53650Y-18900D03*
X53150Y-18900D03*
X52650Y-18900D03*
X52150Y-18900D03*
X51650Y-18900D03*
X51150Y-18900D03*
X50650Y-18900D03*
X50650Y-22900D03*
X51150Y-22900D03*
X51650Y-22900D03*
X52150Y-22900D03*
X52650Y-22900D03*
X53150Y-22900D03*
X53650Y-22900D03*
X54150Y-22900D03*
X60550Y-18900D03*
X60050Y-18900D03*
X59550Y-18900D03*
X59050Y-18900D03*
X58550Y-18900D03*
X58050Y-18900D03*
X57550Y-18900D03*
X57050Y-18900D03*
X57050Y-22900D03*
X57550Y-22900D03*
X58050Y-22900D03*
X58550Y-22900D03*
X59050Y-22900D03*
X59550Y-22900D03*
X60050Y-22900D03*
X60550Y-22900D03*
X65450Y-13600D03*
X64950Y-13600D03*
X64450Y-13600D03*
X63950Y-13600D03*
X63450Y-13600D03*
X62950Y-13600D03*
X62450Y-13600D03*
X61950Y-13600D03*
X61950Y-17600D03*
X62450Y-17600D03*
X62950Y-17600D03*
X63450Y-17600D03*
X63950Y-17600D03*
X64450Y-17600D03*
X64950Y-17600D03*
X65450Y-17600D03*
G54D14*
X23100Y-24650D03*
X23100Y-25150D03*
X23100Y-25650D03*
X23100Y-26150D03*
X23100Y-26650D03*
X23100Y-27150D03*
X23100Y-27650D03*
X23100Y-28150D03*
X27100Y-28150D03*
X27100Y-27650D03*
X27100Y-27150D03*
X27100Y-26650D03*
X27100Y-26150D03*
X27100Y-25650D03*
X27100Y-25150D03*
X27100Y-24650D03*
G54D16*
X16500Y-27550D03*
X16500Y-27050D03*
X16500Y-26550D03*
X16500Y-26050D03*
X14300Y-26050D03*
X14300Y-26550D03*
X14300Y-27050D03*
X14300Y-27550D03*
X19000Y-19650D03*
X19000Y-20150D03*
X19000Y-20650D03*
X19000Y-21150D03*
X21200Y-21150D03*
X21200Y-20650D03*
X21200Y-20150D03*
X21200Y-19650D03*
G54D17*
X63650Y-23300D03*
X64150Y-23300D03*
X64650Y-23300D03*
X65150Y-23300D03*
X65150Y-21100D03*
X64650Y-21100D03*
X64150Y-21100D03*
X63650Y-21100D03*
X17400Y-26100D03*
X17900Y-26100D03*
X18400Y-26100D03*
X18900Y-26100D03*
X19400Y-26100D03*
X19900Y-26100D03*
X20400Y-26100D03*
X20400Y-23900D03*
X19900Y-23900D03*
X19400Y-23900D03*
X18900Y-23900D03*
X18400Y-23900D03*
X17900Y-23900D03*
X17400Y-23900D03*
G54D11*
X6600Y-31800D03*
X6600Y-29831D03*
X8568Y-29831D03*
X8568Y-31800D03*
X11000Y-31800D03*
X11000Y-29831D03*
X12968Y-29831D03*
X12968Y-31800D03*
X15300Y-31800D03*
X15300Y-29831D03*
X17268Y-29831D03*
X17268Y-31800D03*
X87400Y-9900D03*
X85431Y-9900D03*
X85431Y-7931D03*
X87400Y-7931D03*
X74200Y-28300D03*
X74200Y-26331D03*
X76168Y-26331D03*
X76168Y-28300D03*
X36100Y-29200D03*
X36100Y-27231D03*
X38068Y-27231D03*
X38068Y-29200D03*
X48100Y-14100D03*
X48100Y-12131D03*
X50068Y-12131D03*
X50068Y-14100D03*
G54D18*
X45901Y-24962D03*
X41098Y-20237D03*
X40311Y-22600D03*
X41098Y-24962D03*
X45901Y-20237D03*
X39001Y-17962D03*
X34198Y-13237D03*
X33411Y-15600D03*
X34198Y-17962D03*
X39001Y-13237D03*
G54D19*
X25651Y-15100D03*
X16148Y-15100D03*
X92400Y-13748D03*
X92400Y-23251D03*
G54D20*
X96100Y-11700D03*
X96100Y-15637D03*
X44800Y-28100D03*
X40862Y-28100D03*
G54D21*
X56100Y-8300D03*
X58100Y-8300D03*
X57100Y-8300D03*
X59100Y-8300D03*
X20100Y-33800D03*
X21100Y-33800D03*
G54D11*
X88200Y-24131D03*
X86231Y-24131D03*
X86231Y-26100D03*
X88200Y-26100D03*
X88200Y-14288D03*
X86231Y-14288D03*
X88200Y-16257D03*
X86231Y-16257D03*
G54D21*
X71300Y-14000D03*
G54D22*
X70300Y-14000D03*
X69300Y-14000D03*
X68300Y-14000D03*
X68300Y-17000D03*
X69300Y-17000D03*
X70300Y-17000D03*
X71300Y-17000D03*
G54D11*
X6676Y-19800D03*
X12700Y-19800D03*
X104123Y-13400D03*
X98100Y-13400D03*
X6676Y-15100D03*
X12700Y-15100D03*
X104023Y-21900D03*
X98000Y-21900D03*
G54D23*
X79616Y-31542D03*
X79616Y-11857D03*
X44183Y-11857D03*
X44183Y-31542D03*
G54D24*
X72700Y-12550D03*
X72700Y-13650D03*
G54D25*
X70250Y-12700D03*
X71350Y-12700D03*
G54D24*
X74100Y-12550D03*
X74100Y-13650D03*
G54D26*
X20400Y-27125D03*
X20400Y-27875D03*
X8200Y-23125D03*
X8200Y-23875D03*
X9300Y-23125D03*
X9300Y-23875D03*
X21600Y-24075D03*
X21600Y-23325D03*
X12400Y-9425D03*
X12400Y-10175D03*
X19400Y-27125D03*
X19400Y-27875D03*
X12400Y-23125D03*
X12400Y-23875D03*
X7200Y-23125D03*
X7200Y-23875D03*
X10400Y-23125D03*
X10400Y-23875D03*
X11400Y-23125D03*
X11400Y-23875D03*
X66400Y-18575D03*
X66400Y-17825D03*
X67600Y-11125D03*
X67600Y-11875D03*
X65400Y-11925D03*
X65400Y-12675D03*
X99000Y-19075D03*
X99000Y-18325D03*
G54D27*
X21975Y-25300D03*
X21225Y-25300D03*
G54D28*
X27800Y-19796D03*
X27800Y-19204D03*
X37000Y-23596D03*
X37000Y-23004D03*
G54D29*
X33704Y-27100D03*
X34296Y-27100D03*
X37096Y-20700D03*
X36504Y-20700D03*
G54D28*
X14500Y-19296D03*
X14500Y-18704D03*
X14500Y-16704D03*
X14500Y-17296D03*
X31100Y-22096D03*
X31100Y-21504D03*
X64500Y-11896D03*
X64500Y-11304D03*
X66300Y-12596D03*
X66300Y-12004D03*
G54D29*
X56704Y-16100D03*
X57296Y-16100D03*
X55996Y-16100D03*
X55404Y-16100D03*
X54296Y-24400D03*
X53704Y-24400D03*
G54D28*
X53200Y-17304D03*
X53200Y-17896D03*
X55100Y-19904D03*
X55100Y-20496D03*
X49800Y-19704D03*
X49800Y-20296D03*
X55100Y-21204D03*
X55100Y-21796D03*
G54D29*
X51004Y-24200D03*
X51596Y-24200D03*
X54296Y-23700D03*
X53704Y-23700D03*
G54D28*
X28800Y-22604D03*
X28800Y-23196D03*
X28400Y-20804D03*
X28400Y-21396D03*
G54D29*
X30196Y-23500D03*
X29604Y-23500D03*
G54D28*
X28500Y-19204D03*
X28500Y-19796D03*
X30200Y-22696D03*
X30200Y-22104D03*
X31100Y-24004D03*
X31100Y-24596D03*
X55900Y-19904D03*
X55900Y-20496D03*
X62800Y-19904D03*
X62800Y-20496D03*
X55900Y-21204D03*
X55900Y-21796D03*
G54D29*
X24204Y-29000D03*
X24796Y-29000D03*
G54D28*
X28000Y-25804D03*
X28000Y-26396D03*
X28600Y-27596D03*
X28600Y-27004D03*
G54D29*
X24996Y-29700D03*
X24404Y-29700D03*
G54D28*
X28700Y-25096D03*
X28700Y-24504D03*
X22300Y-27796D03*
X22300Y-27204D03*
X28000Y-24504D03*
X28000Y-25096D03*
G54D29*
X62504Y-18400D03*
X63096Y-18400D03*
X59404Y-18000D03*
X59996Y-18000D03*
X34196Y-20700D03*
X33604Y-20700D03*
G54D28*
X47700Y-17404D03*
X47700Y-17996D03*
X30400Y-24996D03*
X30400Y-24404D03*
G54D29*
X35596Y-20700D03*
X35004Y-20700D03*
G54D28*
X22200Y-20604D03*
X22200Y-21196D03*
X60000Y-14396D03*
X60000Y-13804D03*
G54D29*
X65896Y-10200D03*
X65304Y-10200D03*
X62704Y-10200D03*
X63296Y-10200D03*
G54D28*
X59100Y-24296D03*
X59100Y-23704D03*
G54D29*
X19096Y-23100D03*
X18504Y-23100D03*
G54D28*
X64400Y-19596D03*
X64400Y-19004D03*
G54D29*
X62696Y-11000D03*
X62104Y-11000D03*
X70496Y-18100D03*
X69904Y-18100D03*
X58004Y-17200D03*
X58596Y-17200D03*
G54D28*
X61400Y-20404D03*
X61400Y-20996D03*
X18300Y-27104D03*
X18300Y-27696D03*
X63800Y-12396D03*
X63800Y-11804D03*
X67300Y-18496D03*
X67300Y-17904D03*
X60800Y-16004D03*
X60800Y-16596D03*
G54D29*
X54096Y-16600D03*
X53504Y-16600D03*
G54D28*
X54100Y-17304D03*
X54100Y-17896D03*
X62300Y-22704D03*
X62300Y-23296D03*
G54D29*
X59996Y-17300D03*
X59404Y-17300D03*
G54D30*
X66010Y-8700D03*
X64789Y-8700D03*
G54D31*
X99000Y-15989D03*
X99000Y-17210D03*
X9500Y-24689D03*
X9500Y-25910D03*
X13900Y-10610D03*
X13900Y-9389D03*
X12100Y-24689D03*
X12100Y-25910D03*
X8000Y-24689D03*
X8000Y-25910D03*
G54D32*
X47000Y-32000D03*
X47500Y-32000D03*
X48000Y-32000D03*
X48500Y-32000D03*
X49000Y-32000D03*
X49500Y-32000D03*
X50000Y-32000D03*
X50500Y-32000D03*
X51000Y-32000D03*
X51000Y-28299D03*
X50500Y-28299D03*
X50000Y-28299D03*
X49500Y-28299D03*
X49000Y-28299D03*
X48500Y-28299D03*
X48000Y-28299D03*
X47500Y-28299D03*
X47000Y-28299D03*
G54D16*
X16500Y-23950D03*
X16500Y-23450D03*
X16500Y-22950D03*
X16500Y-22450D03*
X14300Y-22450D03*
X14300Y-22950D03*
X14300Y-23450D03*
X14300Y-23950D03*
G54D33*
X68000Y-9500D03*
X69000Y-9500D03*
G54D34*
X70000Y-9500D03*
G54D33*
X75300Y-9500D03*
X76300Y-9500D03*
G54D34*
X77300Y-9500D03*
G54D35*
X22933Y-11900D03*
X19666Y-11900D03*
G54D27*
X42225Y-18300D03*
X42975Y-18300D03*
G54D36*
X30300Y-20719D03*
X31300Y-18200D03*
X29300Y-18200D03*
X56200Y-24280D03*
X55200Y-26800D03*
X57200Y-26800D03*
G54D11*
X7700Y-11000D03*
X7700Y-9031D03*
X9668Y-9031D03*
X9668Y-11000D03*
G54D27*
X90325Y-9500D03*
X91075Y-9500D03*
G54D29*
X7004Y-28700D03*
X7596Y-28700D03*
X42204Y-16800D03*
X42796Y-16800D03*
G54D28*
X31000Y-13096D03*
X31000Y-12504D03*
G54D29*
X9304Y-28700D03*
X9896Y-28700D03*
G54D26*
X28100Y-22425D03*
X28100Y-23175D03*
X31300Y-26025D03*
X31300Y-26775D03*
G54D27*
X56725Y-17900D03*
X57475Y-17900D03*
X61875Y-12200D03*
X61125Y-12200D03*
X28625Y-28300D03*
X29375Y-28300D03*
G54D26*
X12900Y-33525D03*
X12900Y-34275D03*
X15000Y-34275D03*
X15000Y-33525D03*
X8900Y-34275D03*
X8900Y-33525D03*
G54D30*
X6589Y-33900D03*
X7810Y-33900D03*
X11810Y-33900D03*
X10589Y-33900D03*
X17210Y-33900D03*
X15989Y-33900D03*
G54D37*
X16500Y-20300D03*
X103100Y-32700D03*
X103100Y-8000D03*
X66200Y-31600D03*
G54D27*
X43825Y-18300D03*
X44575Y-18300D03*
G54D38*
X42800Y-25000D03*
X13900Y-34100D03*
X9600Y-32800D03*
X26300Y-25600D03*
X29600Y-25500D03*
X61500Y-9700D03*
X55800Y-19200D03*
X34300Y-24700D03*
X8500Y-28700D03*
X43600Y-16800D03*
X71500Y-18100D03*
X66200Y-20100D03*
X16500Y-24700D03*
X92200Y-9500D03*
X29300Y-21400D03*
X33000Y-26000D03*
X61000Y-21800D03*
X59700Y-25600D03*
X33300Y-22300D03*
X51800Y-32000D03*
X47700Y-18900D03*
X74100Y-14600D03*
X63900Y-11200D03*
X60900Y-17300D03*
X65900Y-23300D03*
X12400Y-11200D03*
X17300Y-27500D03*
X58100Y-16100D03*
X52500Y-16700D03*
X32800Y-20400D03*
X20400Y-23000D03*
X21500Y-26300D03*
X15100Y-26500D03*
X24600Y-33100D03*
X32100Y-33100D03*
X24600Y-26400D03*
X18100Y-25300D03*
X18600Y-29900D03*
X60800Y-19800D03*
X62200Y-19100D03*
X74000Y-15700D03*
X64000Y-14500D03*
X51800Y-28400D03*
X49100Y-30900D03*
X58000Y-20500D03*
X53300Y-20500D03*
X51200Y-20500D03*
X49800Y-21900D03*
X13200Y-23100D03*
X14000Y-24900D03*
X23900Y-21000D03*
X31100Y-23300D03*
X69300Y-20700D03*
X69300Y-23800D03*
X52300Y-26000D03*
X52200Y-30100D03*
X52600Y-28400D03*
X25700Y-26400D03*
X25700Y-32000D03*
X32600Y-32000D03*
X18600Y-28400D03*
X52600Y-23700D03*
X35300Y-23100D03*
X18700Y-24800D03*
X26100Y-21000D03*
X35100Y-22200D03*
X34100Y-21600D03*
X37200Y-26100D03*
X38800Y-25300D03*
X56100Y-16900D03*
X56900Y-14700D03*
G54D39*
X32000Y-25900D03*
X38700Y-24400D03*
X36000Y-31300D03*
X37000Y-30300D03*
G54D38*
X20200Y-17900D03*
X20000Y-19200D03*
X69100Y-26600D03*
X63300Y-26600D03*
X63100Y-16100D03*
X58500Y-15300D03*
X58800Y-25600D03*
X60200Y-27000D03*
X62100Y-27500D03*
X69400Y-27500D03*
G54D39*
X57900Y-24200D03*
X60200Y-24200D03*
G54D40*
X6589Y-33900D02*
X6589Y-31810D01*
X6589Y-31810D02*
X6600Y-31800D01*
X7004Y-28700D02*
X6150Y-28700D01*
X6150Y-28700D02*
X6200Y-28700D01*
X6200Y-28700D02*
X6150Y-28700D01*
G54D41*
X6150Y-28900D02*
X6150Y-29381D01*
G54D42*
X18000Y-10000D02*
X15000Y-13000D01*
X15000Y-13000D02*
X10900Y-13000D01*
X10900Y-13000D02*
X8800Y-15100D01*
X8800Y-15100D02*
X8800Y-19900D01*
X8800Y-19900D02*
X7000Y-21700D01*
X33330Y-12369D02*
X33100Y-12139D01*
X25600Y-8800D02*
X24400Y-10000D01*
X32300Y-8800D02*
X25600Y-8800D01*
X33100Y-9600D02*
X32300Y-8800D01*
X33100Y-12139D02*
X33100Y-9600D01*
X24400Y-10000D02*
X18000Y-10000D01*
X6150Y-22550D02*
X7000Y-21700D01*
X6150Y-27450D02*
X6150Y-22550D01*
X6150Y-27450D02*
X6150Y-28700D01*
X6150Y-28700D02*
X6150Y-28900D01*
G54D41*
X6150Y-29381D02*
X6600Y-29831D01*
G54D40*
X42204Y-16800D02*
X41496Y-16800D01*
X41496Y-16800D02*
X41098Y-17198D01*
X31000Y-13096D02*
X32604Y-13096D01*
X32604Y-13096D02*
X33330Y-12369D01*
G54D41*
X37137Y-13237D02*
X41098Y-17198D01*
G54D40*
X51000Y-28299D02*
X51000Y-27100D01*
X42800Y-25000D02*
X43700Y-25900D01*
X43700Y-25900D02*
X49800Y-25900D01*
X49800Y-25900D02*
X51000Y-27100D01*
G54D42*
X34198Y-13237D02*
X33330Y-12369D01*
G54D41*
X41098Y-17198D02*
X41098Y-20237D01*
X34198Y-13237D02*
X37137Y-13237D01*
G54D40*
X99000Y-19075D02*
X99000Y-20900D01*
X99000Y-20900D02*
X98000Y-21900D01*
X13900Y-33525D02*
X13900Y-34100D01*
X12900Y-33525D02*
X13900Y-33525D01*
X13900Y-33525D02*
X15000Y-33525D01*
X8900Y-33525D02*
X8900Y-33100D01*
X9200Y-32800D02*
X9600Y-32800D01*
X8900Y-33100D02*
X9200Y-32800D01*
X27100Y-25650D02*
X26350Y-25650D01*
X26350Y-25650D02*
X26300Y-25600D01*
X29267Y-26225D02*
X29267Y-25833D01*
X29267Y-25833D02*
X29600Y-25500D01*
X27846Y-25650D02*
X27996Y-25800D01*
X27846Y-25650D02*
X27100Y-25650D01*
X61500Y-9700D02*
X60500Y-9700D01*
X60267Y-9933D02*
X60267Y-10225D01*
X60500Y-9700D02*
X60267Y-9933D01*
X62600Y-9700D02*
X62600Y-10096D01*
X62600Y-10096D02*
X62704Y-10200D01*
X62600Y-9700D02*
X61500Y-9700D01*
X61500Y-9700D02*
X62050Y-10250D01*
X62104Y-11000D02*
X62104Y-10304D01*
X62104Y-10304D02*
X62050Y-10250D01*
X55933Y-18575D02*
X55933Y-19067D01*
X55933Y-19067D02*
X55800Y-19200D01*
X34300Y-24700D02*
X34300Y-24500D01*
X34300Y-24500D02*
X35150Y-23650D01*
X36100Y-23650D02*
X35150Y-23650D01*
X34300Y-24700D02*
X34300Y-24500D01*
X8500Y-28700D02*
X9304Y-28700D01*
X7596Y-28700D02*
X8500Y-28700D01*
X7596Y-28700D02*
X8500Y-28700D01*
X42796Y-16800D02*
X43600Y-16800D01*
X70496Y-18100D02*
X71500Y-18100D01*
X64400Y-19596D02*
X64796Y-19596D01*
X65300Y-20100D02*
X66200Y-20100D01*
X64796Y-19596D02*
X65300Y-20100D01*
X31000Y-12504D02*
X31000Y-10350D01*
X31000Y-10350D02*
X30949Y-10300D01*
X31000Y-10350D02*
X30949Y-10300D01*
X16500Y-23950D02*
X16500Y-24700D01*
X91075Y-9500D02*
X92200Y-9500D01*
X28400Y-21396D02*
X29296Y-21396D01*
X29296Y-21396D02*
X29300Y-21400D01*
X32875Y-26867D02*
X32875Y-26125D01*
X32875Y-26125D02*
X33000Y-26000D01*
X61400Y-20996D02*
X61400Y-21400D01*
X61400Y-21400D02*
X61000Y-21800D01*
X59100Y-24296D02*
X59100Y-25000D01*
X59100Y-25000D02*
X59700Y-25600D01*
X32100Y-22650D02*
X32950Y-22650D01*
X32950Y-22650D02*
X33300Y-22300D01*
X64789Y-8700D02*
X63600Y-8700D01*
X62800Y-9500D02*
X62600Y-9700D01*
X63600Y-8700D02*
X62800Y-9500D01*
X51000Y-32000D02*
X51800Y-32000D01*
G54D41*
X47700Y-17996D02*
X47700Y-18900D01*
G54D40*
X74100Y-13650D02*
X74100Y-14600D01*
X63800Y-11804D02*
X63800Y-11300D01*
X63900Y-11200D02*
X64396Y-11200D01*
X64396Y-11200D02*
X64500Y-11304D01*
X63800Y-11300D02*
X63900Y-11200D01*
X59996Y-17300D02*
X60900Y-17300D01*
X65150Y-23300D02*
X65900Y-23300D01*
X12400Y-10175D02*
X12400Y-11200D01*
X18300Y-27696D02*
X17496Y-27696D01*
G54D43*
X17250Y-27550D02*
X17300Y-27500D01*
G54D40*
X17250Y-27550D02*
X16500Y-27550D01*
X17496Y-27696D02*
X17300Y-27500D01*
X57296Y-16100D02*
X58100Y-16100D01*
X53200Y-17304D02*
X53200Y-16600D01*
X53504Y-16600D02*
X53200Y-16600D01*
X53200Y-16600D02*
X52600Y-16600D01*
X52600Y-16600D02*
X52500Y-16700D01*
X19000Y-21150D02*
X19000Y-22604D01*
X19000Y-22604D02*
X19096Y-22700D01*
X19096Y-23100D02*
X19096Y-22700D01*
G54D43*
X19096Y-22700D02*
X19100Y-22700D01*
G54D40*
X14500Y-19296D02*
X14500Y-19600D01*
X14300Y-19800D02*
X12700Y-19800D01*
X14500Y-19600D02*
X14300Y-19800D01*
X33604Y-20700D02*
X33100Y-20700D01*
X33100Y-20700D02*
X32800Y-20400D01*
X20200Y-23200D02*
X20400Y-23000D01*
X20400Y-23900D02*
X20400Y-23400D01*
X19700Y-22700D02*
X19100Y-22700D01*
X20400Y-23400D02*
X20200Y-23200D01*
X20200Y-23200D02*
X19700Y-22700D01*
X21225Y-25300D02*
X21225Y-26025D01*
X21225Y-26025D02*
X21500Y-26300D01*
X19900Y-26100D02*
X19900Y-25300D01*
X21225Y-25300D02*
X19900Y-25300D01*
X19900Y-25300D02*
X19100Y-25300D01*
X18900Y-25500D02*
X18900Y-26100D01*
X19100Y-25300D02*
X18900Y-25500D01*
X16500Y-26550D02*
X15150Y-26550D01*
X15150Y-26550D02*
X15100Y-26500D01*
G54D41*
X74000Y-20500D02*
X74500Y-20000D01*
X74500Y-16200D02*
X74000Y-15700D01*
X74500Y-20000D02*
X74500Y-16200D01*
X22600Y-32700D02*
X23000Y-33100D01*
X18600Y-29900D02*
X21400Y-32700D01*
X21400Y-32700D02*
X22600Y-32700D01*
X23000Y-33100D02*
X24600Y-33100D01*
X32100Y-33100D02*
X24600Y-33100D01*
X45100Y-32900D02*
X44900Y-33100D01*
X44900Y-33100D02*
X32100Y-33100D01*
G54D40*
X17210Y-33900D02*
X17210Y-31858D01*
X17210Y-31858D02*
X17268Y-31800D01*
X24600Y-26400D02*
X24350Y-26400D01*
X24350Y-26400D02*
X24100Y-26150D01*
G54D41*
X17900Y-29900D02*
X17337Y-29900D01*
X17337Y-29900D02*
X17268Y-29831D01*
X17900Y-29900D02*
X18600Y-29900D01*
G54D40*
X17900Y-29900D02*
X17900Y-29900D01*
X60800Y-19800D02*
X59050Y-19800D01*
X59050Y-19800D02*
X59050Y-19850D01*
X62504Y-18400D02*
X62200Y-18704D01*
X60800Y-19804D02*
X61400Y-20404D01*
X60800Y-19800D02*
X60800Y-19804D01*
X62200Y-18704D02*
X62200Y-19100D01*
X60846Y-19850D02*
X61400Y-20404D01*
G54D41*
X63600Y-30900D02*
X74000Y-20500D01*
X49100Y-30900D02*
X63600Y-30900D01*
X46500Y-30900D02*
X49100Y-30900D01*
X45100Y-32900D02*
X46100Y-31900D01*
X46100Y-31900D02*
X46100Y-31300D01*
X46100Y-31300D02*
X46500Y-30900D01*
G54D40*
X17900Y-29900D02*
X17900Y-29900D01*
X63950Y-13600D02*
X63950Y-14450D01*
G54D43*
X63950Y-14450D02*
X64000Y-14500D01*
G54D40*
X52650Y-18900D02*
X52650Y-20500D01*
G54D43*
X52650Y-20500D02*
X52700Y-20500D01*
G54D40*
X49800Y-22500D02*
X49800Y-21900D01*
X51800Y-28400D02*
X51800Y-26600D01*
X51800Y-26600D02*
X49800Y-24600D01*
X49800Y-24600D02*
X49800Y-22500D01*
X59050Y-19850D02*
X59050Y-18900D01*
X58400Y-20500D02*
X59050Y-19850D01*
X58000Y-20500D02*
X58400Y-20500D01*
X51200Y-20500D02*
X52700Y-20500D01*
X52700Y-20500D02*
X53300Y-20500D01*
X23100Y-26150D02*
X24100Y-26150D01*
G54D43*
X24100Y-26150D02*
X24100Y-26200D01*
G54D40*
X13200Y-23100D02*
X12425Y-23100D01*
G54D43*
X12425Y-23100D02*
X12400Y-23125D01*
G54D40*
X18100Y-25300D02*
X15800Y-25300D01*
X15400Y-24900D02*
X14000Y-24900D01*
X15800Y-25300D02*
X15400Y-24900D01*
X18400Y-26100D02*
X18400Y-25600D01*
X18400Y-25600D02*
X18100Y-25300D01*
X7200Y-23125D02*
X8200Y-23125D01*
X8200Y-23125D02*
X9300Y-23125D01*
X9300Y-23125D02*
X10400Y-23125D01*
X10400Y-23125D02*
X11400Y-23125D01*
X11400Y-23125D02*
X12400Y-23125D01*
X23100Y-21050D02*
X22346Y-21050D01*
X22346Y-21050D02*
X22200Y-21196D01*
G54D43*
X23900Y-21000D02*
X23850Y-21050D01*
G54D40*
X23850Y-21050D02*
X23100Y-21050D01*
G54D43*
X31250Y-23150D02*
X32100Y-23150D01*
X31100Y-23300D02*
X31250Y-23150D01*
G54D40*
X18400Y-26100D02*
X18400Y-27004D01*
G54D43*
X18400Y-27004D02*
X18300Y-27104D01*
G54D40*
X63950Y-13600D02*
X63950Y-12546D01*
X63950Y-12546D02*
X63800Y-12396D01*
X71350Y-12700D02*
X71350Y-13950D01*
G54D43*
X71350Y-13950D02*
X71300Y-14000D01*
G54D41*
X39400Y-32000D02*
X41300Y-30100D01*
X52200Y-30100D02*
X41300Y-30100D01*
X39400Y-32000D02*
X32600Y-32000D01*
X63000Y-30100D02*
X52200Y-30100D01*
X69300Y-23800D02*
X63000Y-30100D01*
X69300Y-19300D02*
X69300Y-20700D01*
G54D40*
X52300Y-27200D02*
X52300Y-26000D01*
X52600Y-28400D02*
X52600Y-27500D01*
X52600Y-27500D02*
X52300Y-27200D01*
G54D41*
X23300Y-32000D02*
X23300Y-32000D01*
X21997Y-32000D02*
X23300Y-32000D01*
G54D40*
X10589Y-33900D02*
X10589Y-32210D01*
X10589Y-32210D02*
X11000Y-31800D01*
X27100Y-26150D02*
X25950Y-26150D01*
X25950Y-26150D02*
X25700Y-26400D01*
G54D41*
X14900Y-28600D02*
X15400Y-28600D01*
X15400Y-28600D02*
X15600Y-28400D01*
G54D40*
X11000Y-29831D02*
X11000Y-29400D01*
X11000Y-29400D02*
X10300Y-28700D01*
G54D41*
X12968Y-29831D02*
X12968Y-29231D01*
X12968Y-29231D02*
X13600Y-28600D01*
G54D40*
X9896Y-28700D02*
X10300Y-28700D01*
G54D41*
X18600Y-28400D02*
X15600Y-28400D01*
X14900Y-28600D02*
X13600Y-28600D01*
G54D40*
X69904Y-18100D02*
X69300Y-18100D01*
G54D41*
X69300Y-19300D02*
X69300Y-18100D01*
X69300Y-18100D02*
X69300Y-17000D01*
X64400Y-19004D02*
X65004Y-19004D01*
X65300Y-19300D02*
X69300Y-19300D01*
X65004Y-19004D02*
X65300Y-19300D01*
G54D40*
X63950Y-18254D02*
X63950Y-18554D01*
X63950Y-17600D02*
X63950Y-18254D01*
X63950Y-18554D02*
X64400Y-19004D01*
X18600Y-28400D02*
X18600Y-28500D01*
G54D41*
X23300Y-32000D02*
X25700Y-32000D01*
G54D42*
X18600Y-28500D02*
X21997Y-32000D01*
G54D40*
X59050Y-22900D02*
X59050Y-23654D01*
X59050Y-23654D02*
X59100Y-23704D01*
G54D41*
X25700Y-32000D02*
X32600Y-32000D01*
G54D40*
X52650Y-22900D02*
X52650Y-23650D01*
X52600Y-23700D02*
X52650Y-23650D01*
X35350Y-23150D02*
X36100Y-23150D01*
X35300Y-23100D02*
X35350Y-23150D01*
X18400Y-23900D02*
X18400Y-24500D01*
X18400Y-24500D02*
X18700Y-24800D01*
X26150Y-21050D02*
X27100Y-21050D01*
G54D43*
X26100Y-21000D02*
X26150Y-21050D01*
G54D40*
X18400Y-23900D02*
X18400Y-23204D01*
X18400Y-23204D02*
X18504Y-23100D01*
X28500Y-19796D02*
X28500Y-20704D01*
G54D43*
X28500Y-20704D02*
X28400Y-20804D01*
G54D40*
X27650Y-21550D02*
X27800Y-21400D01*
X27100Y-21550D02*
X27650Y-21550D01*
X28096Y-20804D02*
X28400Y-20804D01*
X27800Y-21100D02*
X28096Y-20804D01*
X27800Y-21400D02*
X27800Y-21100D01*
G54D43*
X28504Y-19800D02*
X28500Y-19796D01*
G54D40*
X54296Y-24400D02*
X56080Y-24400D01*
G54D43*
X56080Y-24400D02*
X56200Y-24280D01*
G54D40*
X27100Y-20050D02*
X26750Y-20050D01*
X27200Y-18200D02*
X29300Y-18200D01*
X26400Y-19000D02*
X27200Y-18200D01*
X26400Y-19700D02*
X26400Y-19000D01*
X26750Y-20050D02*
X26400Y-19700D01*
X27100Y-20050D02*
X27600Y-20050D01*
X27600Y-20050D02*
X27800Y-19796D01*
G54D43*
X30400Y-24996D02*
X30400Y-25100D01*
G54D40*
X30600Y-27200D02*
X31300Y-27900D01*
X31300Y-27900D02*
X31700Y-27900D01*
X30600Y-25300D02*
X30600Y-27200D01*
X33700Y-27104D02*
X33700Y-27500D01*
X33700Y-27500D02*
X33300Y-27900D01*
X33700Y-27104D02*
X33704Y-27100D01*
X32000Y-28200D02*
X33000Y-28200D01*
X33000Y-28200D02*
X33300Y-27900D01*
X31700Y-27900D02*
X32000Y-28200D01*
G54D43*
X30400Y-25100D02*
X30600Y-25300D01*
X30300Y-24996D02*
X30300Y-25000D01*
G54D40*
X34900Y-24700D02*
X34900Y-25200D01*
X34900Y-25200D02*
X33704Y-26396D01*
X37000Y-23596D02*
X37000Y-23800D01*
X37000Y-23800D02*
X36650Y-24150D01*
X36100Y-24150D02*
X36650Y-24150D01*
X33704Y-27100D02*
X33704Y-26396D01*
X35450Y-24150D02*
X36100Y-24150D01*
X34900Y-24700D02*
X35450Y-24150D01*
X36504Y-20700D02*
X36100Y-20700D01*
X36100Y-21650D02*
X36100Y-20700D01*
X35596Y-20700D02*
X36100Y-20700D01*
G54D44*
X39200Y-28100D02*
X38937Y-28100D01*
X38937Y-28100D02*
X38068Y-27231D01*
X40862Y-28100D02*
X39200Y-28100D01*
G54D43*
X33700Y-30300D02*
X22700Y-30300D01*
X22700Y-30300D02*
X21400Y-29000D01*
X21400Y-29000D02*
X21400Y-27300D01*
X21400Y-27300D02*
X22050Y-26650D01*
X23100Y-26650D02*
X22050Y-26650D01*
X34800Y-29200D02*
X33700Y-30300D01*
X34800Y-29200D02*
X36100Y-29200D01*
X14300Y-23450D02*
X14300Y-23950D01*
X14300Y-23950D02*
X13050Y-23950D01*
X12689Y-25910D02*
X12100Y-25910D01*
X13000Y-25600D02*
X12689Y-25910D01*
X13000Y-24000D02*
X13000Y-25600D01*
X13050Y-23950D02*
X13000Y-24000D01*
G54D40*
X11100Y-26200D02*
X11100Y-24175D01*
X11100Y-24175D02*
X11400Y-23875D01*
X16500Y-23450D02*
X15150Y-23450D01*
X15150Y-23450D02*
X15000Y-23600D01*
X15000Y-23600D02*
X15000Y-24200D01*
X15000Y-24200D02*
X14800Y-24400D01*
X14800Y-24400D02*
X13600Y-24400D01*
X13600Y-24400D02*
X13300Y-24700D01*
X13300Y-24700D02*
X13300Y-26100D01*
G54D43*
X13300Y-26100D02*
X12900Y-26500D01*
X12900Y-26500D02*
X11400Y-26500D01*
X11400Y-26500D02*
X11100Y-26200D01*
G54D40*
X16500Y-23450D02*
X17250Y-23450D01*
X17400Y-23600D02*
X17400Y-23900D01*
X17250Y-23450D02*
X17400Y-23600D01*
X58050Y-18250D02*
X58596Y-17704D01*
X58596Y-17200D02*
X58596Y-17704D01*
X58050Y-18250D02*
X58050Y-18900D01*
X55900Y-19904D02*
X57696Y-19904D01*
X58050Y-19550D02*
X58050Y-18900D01*
X57696Y-19904D02*
X58050Y-19550D01*
X8000Y-25910D02*
X8000Y-26800D01*
X8750Y-27550D02*
X14300Y-27550D01*
X8000Y-26800D02*
X8750Y-27550D01*
X14300Y-27550D02*
X14300Y-27050D01*
G54D43*
X14300Y-26550D02*
X13850Y-26550D01*
X9500Y-26500D02*
X9500Y-25910D01*
X10200Y-27200D02*
X9500Y-26500D01*
X13200Y-27200D02*
X10200Y-27200D01*
X13850Y-26550D02*
X13200Y-27200D01*
X14300Y-26050D02*
X14300Y-26550D01*
G54D40*
X13900Y-9389D02*
X12400Y-9425D01*
X30896Y-24004D02*
X30596Y-24004D01*
X31100Y-24004D02*
X30896Y-24004D01*
X30400Y-24200D02*
X30400Y-24404D01*
X30596Y-24004D02*
X30400Y-24200D01*
X31100Y-24004D02*
X31504Y-24004D01*
X31650Y-24150D02*
X32100Y-24150D01*
X31504Y-24004D02*
X31650Y-24150D01*
X34600Y-20700D02*
X35004Y-20700D01*
X34600Y-22300D02*
X33250Y-23650D01*
X32100Y-23650D02*
X33250Y-23650D01*
X34600Y-22300D02*
X34600Y-20700D01*
X34196Y-20700D02*
X34600Y-20700D01*
X28100Y-22425D02*
X28100Y-22050D01*
X28800Y-22604D02*
X28800Y-22050D01*
X27100Y-22050D02*
X28100Y-22050D01*
X28100Y-22050D02*
X28800Y-22050D01*
X28800Y-22050D02*
X29150Y-22050D01*
X29604Y-22504D02*
X29604Y-23500D01*
X29150Y-22050D02*
X29604Y-22504D01*
X31100Y-24596D02*
X31100Y-25825D01*
X31100Y-25825D02*
X31300Y-26025D01*
X32100Y-24650D02*
X31154Y-24650D01*
G54D43*
X31154Y-24650D02*
X31100Y-24596D01*
G54D40*
X30200Y-18900D02*
X30200Y-17400D01*
X35550Y-22650D02*
X35100Y-22200D01*
X34100Y-21600D02*
X33200Y-21600D01*
X33200Y-21600D02*
X31700Y-20100D01*
X36100Y-22650D02*
X35550Y-22650D01*
X21100Y-18100D02*
X20700Y-18500D01*
X31000Y-19400D02*
X30700Y-19400D01*
X30700Y-19400D02*
X30200Y-18900D01*
X31700Y-20100D02*
X31000Y-19400D01*
X30200Y-17400D02*
X29700Y-16900D01*
X29700Y-16900D02*
X22300Y-16900D01*
X22300Y-16900D02*
X21100Y-18100D01*
X20700Y-18500D02*
X24500Y-18500D01*
X20700Y-18500D02*
X15500Y-18500D01*
X15000Y-18000D02*
X14500Y-18000D01*
X15500Y-18500D02*
X15000Y-18000D01*
X14500Y-18704D02*
X14500Y-18000D01*
X14500Y-17296D02*
X14500Y-18000D01*
X27100Y-20550D02*
X26550Y-20550D01*
X26550Y-20550D02*
X24500Y-18500D01*
X36100Y-22150D02*
X37096Y-22150D01*
X37096Y-20700D02*
X37096Y-22150D01*
X37096Y-22150D02*
X37096Y-22908D01*
X37096Y-22908D02*
X37000Y-23004D01*
X35400Y-24900D02*
X35400Y-25400D01*
X35400Y-25400D02*
X34296Y-26504D01*
X34296Y-27100D02*
X34296Y-26504D01*
X36100Y-24650D02*
X35650Y-24650D01*
X35650Y-24650D02*
X35400Y-24900D01*
G54D41*
X42225Y-18300D02*
X42225Y-22075D01*
X41700Y-22600D02*
X40311Y-22600D01*
X42225Y-22075D02*
X41700Y-22600D01*
G54D44*
X39001Y-17962D02*
X39001Y-21290D01*
X39001Y-21290D02*
X40311Y-22600D01*
G54D41*
X42975Y-18300D02*
X43825Y-18300D01*
G54D40*
X55404Y-16100D02*
X55000Y-16100D01*
X54900Y-16200D02*
X54900Y-16900D01*
X55000Y-16100D02*
X54900Y-16200D01*
X54100Y-17896D02*
X54504Y-17896D01*
X54504Y-17896D02*
X54600Y-17800D01*
X54600Y-17800D02*
X54600Y-17200D01*
X54600Y-17200D02*
X54900Y-16900D01*
X54150Y-18500D02*
X54150Y-17946D01*
G54D43*
X54150Y-17946D02*
X54100Y-17896D01*
G54D40*
X55100Y-19904D02*
X55100Y-19100D01*
X54500Y-18500D02*
X54150Y-18500D01*
X55100Y-19100D02*
X54500Y-18500D01*
X54150Y-18900D02*
X54150Y-18500D01*
X47500Y-33300D02*
X47500Y-32000D01*
X20700Y-34600D02*
X20400Y-34600D01*
X46200Y-34600D02*
X20700Y-34600D01*
X47500Y-33300D02*
X46200Y-34600D01*
X20100Y-34300D02*
X20100Y-33800D01*
X20400Y-34600D02*
X20100Y-34300D01*
X34198Y-17962D02*
X36362Y-17962D01*
X47000Y-27300D02*
X47000Y-28299D01*
X39400Y-26800D02*
X46500Y-26800D01*
X46500Y-26800D02*
X47000Y-27300D01*
X37800Y-25200D02*
X39400Y-26800D01*
X37800Y-19400D02*
X37800Y-25200D01*
X36362Y-17962D02*
X37800Y-19400D01*
G54D43*
X46500Y-26800D02*
X47000Y-27300D01*
X36362Y-17962D02*
X37800Y-19400D01*
G54D40*
X25500Y-21550D02*
X25950Y-21550D01*
X26200Y-21800D02*
X26200Y-22200D01*
X25950Y-21550D02*
X26200Y-21800D01*
X28100Y-23175D02*
X28100Y-23600D01*
X27600Y-23600D02*
X28100Y-23600D01*
X28100Y-23600D02*
X28700Y-23600D01*
X26400Y-23600D02*
X26200Y-23400D01*
X27600Y-23600D02*
X26400Y-23600D01*
X26200Y-22600D02*
X26200Y-23400D01*
X28800Y-23500D02*
X28800Y-23196D01*
X28700Y-23600D02*
X28800Y-23500D01*
X27100Y-22550D02*
X26200Y-22550D01*
G54D43*
X26200Y-22550D02*
X26200Y-22600D01*
G54D40*
X23950Y-21550D02*
X25500Y-21550D01*
X26200Y-22200D02*
X26200Y-22600D01*
X23950Y-21550D02*
X23100Y-21550D01*
G54D44*
X28800Y-15100D02*
X32911Y-15100D01*
X32911Y-15100D02*
X33411Y-15600D01*
X28800Y-15100D02*
X25651Y-15100D01*
X28800Y-10300D02*
X28800Y-15100D01*
G54D40*
X21100Y-33800D02*
X46400Y-33800D01*
X46600Y-33600D02*
X46800Y-33400D01*
X47000Y-33200D02*
X46800Y-33400D01*
X47000Y-33200D02*
X47000Y-32000D01*
X46400Y-33800D02*
X46600Y-33600D01*
G54D41*
X44575Y-18300D02*
X45600Y-18300D01*
G54D40*
X45600Y-18300D02*
X45900Y-18000D01*
X23650Y-9050D02*
X16550Y-9050D01*
X16550Y-9050D02*
X15000Y-10600D01*
G54D41*
X47700Y-17404D02*
X47700Y-17000D01*
X47700Y-17000D02*
X46450Y-15750D01*
X45900Y-18100D02*
X45900Y-18000D01*
G54D44*
X48100Y-14100D02*
X48100Y-12131D01*
X45900Y-16300D02*
X46450Y-15750D01*
X46450Y-15750D02*
X48100Y-14100D01*
X45900Y-16300D02*
X45900Y-18000D01*
X45900Y-18000D02*
X45900Y-20236D01*
X45900Y-20236D02*
X45901Y-20237D01*
G54D43*
X45901Y-16300D02*
X45900Y-16300D01*
G54D40*
X45900Y-16300D02*
X45100Y-16300D01*
X15000Y-10600D02*
X13900Y-10610D01*
X24900Y-7800D02*
X23650Y-9050D01*
X36600Y-7800D02*
X24900Y-7800D01*
X45100Y-16300D02*
X36600Y-7800D01*
G54D43*
X45901Y-16300D02*
X45901Y-16298D01*
G54D40*
X14500Y-16704D02*
X14500Y-15100D01*
G54D45*
X14500Y-15100D02*
X16148Y-15100D01*
X12700Y-15100D02*
X14500Y-15100D01*
G54D40*
X30600Y-28300D02*
X31000Y-28700D01*
X29267Y-26975D02*
X29267Y-28192D01*
X29267Y-28192D02*
X29375Y-28300D01*
X29375Y-28300D02*
X30600Y-28300D01*
X31000Y-28700D02*
X31500Y-28700D01*
X31700Y-28700D02*
X31500Y-28700D01*
X57100Y-10200D02*
X57100Y-8300D01*
X34000Y-28700D02*
X31700Y-28700D01*
X35100Y-27600D02*
X34000Y-28700D01*
X35100Y-26700D02*
X35100Y-27600D01*
X35700Y-26100D02*
X35100Y-26700D01*
X37200Y-26100D02*
X35700Y-26100D01*
X40000Y-24100D02*
X38800Y-25300D01*
X48300Y-24100D02*
X40000Y-24100D01*
X49000Y-23400D02*
X48300Y-24100D01*
X49000Y-18300D02*
X49000Y-23400D01*
X57100Y-10200D02*
X49000Y-18300D01*
X29367Y-28292D02*
X29375Y-28300D01*
X56300Y-17100D02*
X56100Y-16900D01*
X56300Y-17825D02*
X56300Y-17100D01*
X55933Y-17825D02*
X56300Y-17825D01*
X56300Y-17825D02*
X56650Y-17825D01*
X56650Y-17825D02*
X56725Y-17900D01*
X58100Y-13500D02*
X58100Y-8300D01*
X56900Y-14700D02*
X58100Y-13500D01*
X56300Y-17100D02*
X56100Y-16900D01*
X31300Y-26775D02*
X32033Y-26775D01*
X32033Y-26775D02*
X32125Y-26867D01*
X32000Y-26575D02*
X32000Y-26600D01*
X32000Y-26192D02*
X32000Y-26600D01*
X32000Y-26600D02*
X32000Y-26742D01*
X32000Y-26742D02*
X32125Y-26867D01*
X32000Y-25900D02*
X32000Y-26192D01*
X56100Y-10500D02*
X48500Y-18100D01*
X48500Y-18100D02*
X48500Y-23100D01*
X48500Y-23100D02*
X47900Y-23700D01*
X47900Y-23700D02*
X39400Y-23700D01*
X39400Y-23700D02*
X38700Y-24400D01*
X56100Y-10500D02*
X56100Y-8300D01*
X61125Y-12200D02*
X60700Y-12200D01*
X60700Y-12200D02*
X60267Y-11767D01*
X60267Y-10975D02*
X59575Y-10975D01*
X59575Y-10975D02*
X59100Y-10500D01*
X59100Y-10500D02*
X59100Y-8300D01*
X60267Y-11767D02*
X60267Y-10975D01*
X21200Y-20650D02*
X22154Y-20650D01*
G54D43*
X22154Y-20650D02*
X22200Y-20604D01*
G54D40*
X23100Y-20550D02*
X22254Y-20550D01*
G54D43*
X22254Y-20550D02*
X22200Y-20604D01*
X20600Y-19600D02*
X20600Y-19400D01*
X23100Y-19300D02*
X23100Y-19550D01*
X22900Y-19100D02*
X23100Y-19300D01*
X20900Y-19100D02*
X22900Y-19100D01*
X20600Y-19400D02*
X20900Y-19100D01*
X21850Y-22050D02*
X20850Y-22050D01*
X20850Y-22050D02*
X20600Y-21800D01*
X20600Y-19600D02*
X20600Y-21800D01*
X21850Y-22050D02*
X23100Y-22050D01*
X23100Y-20050D02*
X23100Y-19550D01*
G54D40*
X31100Y-21504D02*
X32000Y-21500D01*
X32000Y-21500D02*
X32100Y-21650D01*
X63096Y-18400D02*
X63450Y-18400D01*
X63800Y-20300D02*
X63450Y-19950D01*
X63450Y-17600D02*
X63450Y-18400D01*
X63450Y-18400D02*
X63450Y-18646D01*
X64400Y-20300D02*
X63800Y-20300D01*
X64650Y-20550D02*
X64400Y-20300D01*
X64650Y-20550D02*
X64650Y-21100D01*
X63450Y-19950D02*
X63450Y-18900D01*
X63450Y-18900D02*
X63450Y-18646D01*
X62450Y-17600D02*
X62700Y-17600D01*
X60800Y-16596D02*
X62196Y-16596D01*
X62196Y-16596D02*
X62700Y-17100D01*
X62700Y-17100D02*
X62700Y-17600D01*
X62950Y-17600D02*
X62700Y-17600D01*
X65400Y-11925D02*
X66221Y-11925D01*
G54D43*
X66221Y-11925D02*
X66300Y-12004D01*
G54D40*
X64500Y-11896D02*
X65371Y-11896D01*
G54D43*
X65371Y-11896D02*
X65400Y-11925D01*
G54D40*
X64450Y-13600D02*
X64450Y-11946D01*
G54D43*
X64450Y-11946D02*
X64500Y-11896D01*
G54D41*
X68000Y-9900D02*
X68000Y-9500D01*
G54D43*
X39500Y-29300D02*
X39600Y-29200D01*
G54D40*
X68100Y-10000D02*
X68000Y-9900D01*
X68000Y-9900D02*
X68500Y-10400D01*
X68500Y-10400D02*
X68500Y-12300D01*
X68500Y-12300D02*
X67500Y-13300D01*
X67500Y-13300D02*
X67500Y-14900D01*
X67500Y-14900D02*
X68100Y-15500D01*
X68100Y-15500D02*
X71800Y-15500D01*
X71800Y-15500D02*
X72400Y-16100D01*
X72400Y-16100D02*
X72400Y-18900D01*
X72400Y-18900D02*
X62100Y-29200D01*
X67900Y-10000D02*
X68100Y-10000D01*
G54D43*
X62100Y-29200D02*
X40900Y-29200D01*
X22400Y-31300D02*
X19400Y-28300D01*
X19400Y-28300D02*
X19400Y-27875D01*
X36000Y-31300D02*
X22400Y-31300D01*
X39500Y-29300D02*
X38500Y-30300D01*
X37000Y-30300D02*
X38500Y-30300D01*
X39600Y-29200D02*
X40900Y-29200D01*
G54D40*
X67600Y-11125D02*
X67600Y-10300D01*
X67600Y-10300D02*
X67900Y-10000D01*
X47500Y-27200D02*
X47500Y-28299D01*
X46700Y-26400D02*
X47500Y-27200D01*
X42200Y-26400D02*
X46700Y-26400D01*
X41098Y-24962D02*
X41098Y-25298D01*
X41098Y-25298D02*
X42200Y-26400D01*
G54D43*
X41098Y-25298D02*
X42200Y-26400D01*
G54D40*
X56704Y-16600D02*
X58600Y-16600D01*
X55996Y-16100D02*
X56704Y-16100D01*
X64950Y-14350D02*
X64950Y-13600D01*
X64300Y-15000D02*
X64950Y-14350D01*
X60200Y-15000D02*
X64300Y-15000D01*
X58600Y-16600D02*
X60200Y-15000D01*
X56704Y-16600D02*
X56704Y-16100D01*
G54D43*
X67200Y-12596D02*
X67204Y-12596D01*
G54D40*
X67204Y-12596D02*
X67600Y-12200D01*
X67600Y-12200D02*
X67600Y-11875D01*
X66300Y-12596D02*
X67200Y-12596D01*
G54D43*
X66300Y-12596D02*
X66300Y-12700D01*
G54D40*
X65900Y-13100D02*
X65450Y-13100D01*
X66300Y-12700D02*
X65900Y-13100D01*
X65450Y-13600D02*
X65450Y-13100D01*
X65450Y-13100D02*
X65450Y-12725D01*
G54D43*
X65450Y-12725D02*
X65400Y-12675D01*
G54D40*
X28600Y-27596D02*
X28600Y-28275D01*
X28600Y-28275D02*
X28625Y-28300D01*
X27100Y-27650D02*
X28546Y-27650D01*
X28546Y-27650D02*
X28600Y-27596D01*
X28600Y-28275D02*
X28625Y-28300D01*
X28546Y-27650D02*
X28600Y-27596D01*
X28600Y-27004D02*
X28600Y-25196D01*
X28600Y-25196D02*
X28700Y-25096D01*
X27100Y-27150D02*
X27650Y-27150D01*
X27796Y-27004D02*
X28600Y-27004D01*
X27650Y-27150D02*
X27796Y-27004D01*
G54D43*
X27100Y-26650D02*
X27550Y-26650D01*
X27804Y-26396D02*
X28000Y-26396D01*
X27550Y-26650D02*
X27804Y-26396D01*
X24996Y-29700D02*
X25200Y-29700D01*
X26450Y-26650D02*
X27100Y-26650D01*
X26100Y-27000D02*
X26450Y-26650D01*
X26100Y-28800D02*
X26100Y-27000D01*
X25200Y-29700D02*
X26100Y-28800D01*
G54D40*
X30200Y-22104D02*
X30200Y-20819D01*
G54D43*
X30200Y-20819D02*
X30300Y-20719D01*
G54D42*
X74000Y-8400D02*
X76300Y-8400D01*
X76300Y-8400D02*
X76300Y-9500D01*
X72900Y-9500D02*
X74000Y-8400D01*
X70000Y-9500D02*
X72900Y-9500D01*
G54D43*
X58550Y-18900D02*
X58550Y-18250D01*
X58800Y-18000D02*
X59404Y-18000D01*
X58550Y-18250D02*
X58800Y-18000D01*
G54D40*
X59404Y-18000D02*
X59404Y-17300D01*
G54D44*
X86231Y-14288D02*
X85288Y-14288D01*
X84288Y-13288D02*
X80500Y-9500D01*
G54D42*
X78700Y-9500D02*
X77300Y-9500D01*
G54D44*
X80500Y-9500D02*
X78700Y-9500D01*
X85288Y-14288D02*
X84288Y-13288D01*
X86231Y-14288D02*
X88200Y-14288D01*
X86231Y-24131D02*
X88200Y-24131D01*
X88200Y-24131D02*
X89079Y-23251D01*
X89079Y-23251D02*
X92400Y-23251D01*
G54D40*
X63296Y-12696D02*
X63296Y-12896D01*
X63296Y-12896D02*
X63450Y-13050D01*
X65304Y-10200D02*
X63296Y-10200D01*
X63450Y-13600D02*
X63450Y-13050D01*
X63296Y-12696D02*
X63296Y-10200D01*
X62696Y-11000D02*
X62696Y-12596D01*
X62950Y-12850D02*
X62950Y-13600D01*
X62696Y-12596D02*
X62950Y-12850D01*
X62950Y-13600D02*
X62950Y-14050D01*
X62604Y-14396D02*
X60000Y-14396D01*
X62950Y-14050D02*
X62604Y-14396D01*
X20000Y-21700D02*
X20000Y-21800D01*
G54D41*
X20200Y-17900D02*
X26650Y-11449D01*
X26650Y-10300D02*
X26650Y-11449D01*
G54D40*
X20850Y-22550D02*
X22050Y-22550D01*
G54D41*
X20000Y-19200D02*
X20000Y-21700D01*
G54D40*
X20750Y-22550D02*
X20850Y-22550D01*
X20000Y-21800D02*
X20750Y-22550D01*
G54D43*
X21975Y-25300D02*
X22000Y-25300D01*
G54D40*
X22400Y-24900D02*
X22400Y-22550D01*
X22000Y-25300D02*
X22400Y-24900D01*
X23100Y-22550D02*
X22400Y-22550D01*
X22400Y-22550D02*
X22050Y-22550D01*
X21600Y-23000D02*
X21600Y-23325D01*
X22050Y-22550D02*
X21600Y-23000D01*
X99000Y-18325D02*
X99000Y-17210D01*
X61896Y-12200D02*
X61896Y-12900D01*
G54D43*
X61896Y-12900D02*
X61900Y-12900D01*
G54D40*
X62450Y-13600D02*
X62450Y-12950D01*
X60000Y-13400D02*
X60000Y-13804D01*
X60500Y-12900D02*
X60000Y-13400D01*
X62450Y-12950D02*
X62400Y-12900D01*
X62400Y-12900D02*
X61900Y-12900D01*
X61900Y-12900D02*
X61000Y-12900D01*
X61000Y-12900D02*
X60500Y-12900D01*
G54D41*
X68300Y-7100D02*
X67600Y-7800D01*
X67100Y-8300D02*
X66700Y-8700D01*
X67600Y-7800D02*
X67100Y-8300D01*
G54D44*
X69000Y-7100D02*
X69000Y-8000D01*
G54D41*
X69000Y-9500D02*
X69000Y-8000D01*
G54D44*
X69000Y-7100D02*
X68300Y-7100D01*
X70800Y-7100D02*
X68300Y-7100D01*
X85431Y-7931D02*
X82831Y-7931D01*
X82831Y-7931D02*
X82000Y-7100D01*
X82000Y-7100D02*
X70800Y-7100D01*
G54D41*
X66700Y-8700D02*
X66700Y-9800D01*
X66700Y-9800D02*
X66300Y-10200D01*
X66300Y-10200D02*
X65896Y-10200D01*
G54D40*
X90325Y-9500D02*
X89000Y-9500D01*
X89000Y-9500D02*
X87800Y-8300D01*
G54D44*
X85431Y-7931D02*
X87400Y-7931D01*
G54D41*
X66700Y-8700D02*
X66010Y-8700D01*
G54D44*
X92400Y-13748D02*
X94051Y-13748D01*
X94051Y-13748D02*
X96100Y-11700D01*
G54D40*
X94051Y-13748D02*
X94051Y-14948D01*
X94051Y-14948D02*
X94000Y-15000D01*
X94051Y-13748D02*
X96100Y-11700D01*
X91200Y-17800D02*
X89900Y-17800D01*
X69100Y-26600D02*
X69500Y-26600D01*
X78300Y-17800D02*
X87800Y-17800D01*
X69500Y-26600D02*
X78300Y-17800D01*
X87800Y-17800D02*
X89900Y-17800D01*
X94000Y-15000D02*
X91200Y-17800D01*
X60700Y-26200D02*
X61200Y-26200D01*
X59550Y-24500D02*
X59550Y-24550D01*
X59550Y-24550D02*
X61200Y-26200D01*
X61200Y-26200D02*
X61600Y-26600D01*
X60700Y-26200D02*
X58400Y-26200D01*
X58400Y-26200D02*
X57900Y-25700D01*
X61600Y-26600D02*
X63300Y-26600D01*
G54D43*
X69100Y-26600D02*
X69100Y-26600D01*
X53400Y-25700D02*
X52150Y-24450D01*
X52150Y-24450D02*
X52150Y-22900D01*
X57900Y-25700D02*
X53400Y-25700D01*
G54D40*
X59550Y-22900D02*
X59550Y-24500D01*
X12400Y-23875D02*
X12400Y-24389D01*
X12400Y-24389D02*
X12100Y-24689D01*
X19400Y-27125D02*
X19400Y-26100D01*
X20400Y-26100D02*
X20400Y-27125D01*
G54D43*
X21600Y-24075D02*
X21600Y-24300D01*
G54D40*
X19900Y-24500D02*
X19900Y-23900D01*
X20000Y-24600D02*
X19900Y-24500D01*
X21300Y-24600D02*
X20000Y-24600D01*
X21600Y-24300D02*
X21300Y-24600D01*
X10400Y-23875D02*
X10400Y-26300D01*
X16500Y-26050D02*
X17350Y-26050D01*
G54D43*
X17350Y-26050D02*
X17400Y-26100D01*
X16500Y-26050D02*
X15450Y-26050D01*
X14000Y-25500D02*
X13700Y-25800D01*
X14900Y-25500D02*
X14000Y-25500D01*
X15450Y-26050D02*
X14900Y-25500D01*
X13700Y-26300D02*
X13700Y-25800D01*
X13100Y-26900D02*
X13700Y-26300D01*
X11000Y-26900D02*
X13100Y-26900D01*
G54D40*
X10400Y-26300D02*
X11000Y-26900D01*
X7900Y-28000D02*
X7000Y-27100D01*
X7200Y-23875D02*
X7125Y-23875D01*
X7125Y-23875D02*
X7000Y-24000D01*
X7000Y-24000D02*
X7000Y-27100D01*
G54D43*
X16500Y-27050D02*
X17550Y-27050D01*
G54D40*
X17900Y-26700D02*
X17900Y-26100D01*
X17550Y-27050D02*
X17900Y-26700D01*
X16500Y-27050D02*
X15350Y-27050D01*
X14800Y-28000D02*
X7900Y-28000D01*
X15100Y-27700D02*
X14800Y-28000D01*
X15100Y-27300D02*
X15100Y-27700D01*
X15350Y-27050D02*
X15100Y-27300D01*
X8200Y-23875D02*
X8200Y-24489D01*
X8200Y-24489D02*
X8000Y-24689D01*
X9300Y-23875D02*
X9300Y-24489D01*
X9300Y-24489D02*
X9500Y-24689D01*
X58500Y-15300D02*
X55100Y-15300D01*
X63800Y-16100D02*
X63100Y-16100D01*
X64450Y-17600D02*
X64450Y-16750D01*
X54400Y-16600D02*
X54096Y-16600D01*
X54400Y-16600D02*
X54500Y-16500D01*
X64100Y-16100D02*
X64450Y-16450D01*
X64450Y-16450D02*
X64450Y-16750D01*
X63800Y-16100D02*
X64100Y-16100D01*
X54900Y-15500D02*
X54500Y-15900D01*
X54500Y-15900D02*
X54500Y-16500D01*
X55100Y-15300D02*
X54900Y-15500D01*
X54100Y-17304D02*
X54100Y-16604D01*
G54D43*
X54100Y-16604D02*
X54096Y-16600D01*
G54D40*
X66400Y-18575D02*
X67221Y-18575D01*
G54D43*
X67221Y-18575D02*
X67300Y-18496D01*
G54D40*
X65400Y-18600D02*
X66375Y-18600D01*
G54D43*
X66375Y-18600D02*
X66400Y-18575D01*
G54D40*
X64950Y-18150D02*
X64950Y-17600D01*
X65400Y-18600D02*
X64950Y-18150D01*
X60800Y-16004D02*
X61304Y-15500D01*
X64950Y-15750D02*
X64950Y-16350D01*
X64700Y-15500D02*
X64950Y-15750D01*
X61304Y-15500D02*
X64700Y-15500D01*
X64950Y-16350D02*
X64950Y-17600D01*
X53200Y-17896D02*
X53200Y-18100D01*
X53200Y-18100D02*
X53100Y-18200D01*
X49800Y-19704D02*
X49800Y-18300D01*
X53150Y-18250D02*
X53150Y-18900D01*
G54D43*
X53100Y-18200D02*
X53150Y-18250D01*
G54D40*
X49900Y-18200D02*
X53100Y-18200D01*
X49800Y-18300D02*
X49900Y-18200D01*
X67300Y-17100D02*
X67100Y-16900D01*
X67300Y-17904D02*
X67300Y-17100D01*
X66400Y-17825D02*
X66400Y-16900D01*
X66400Y-16900D02*
X67100Y-16900D01*
X65450Y-17600D02*
X65450Y-17150D01*
X71300Y-16300D02*
X71300Y-17000D01*
X71000Y-16000D02*
X71300Y-16300D01*
X68000Y-16000D02*
X71000Y-16000D01*
X67100Y-16900D02*
X68000Y-16000D01*
X65700Y-16900D02*
X66400Y-16900D01*
X65450Y-17150D02*
X65700Y-16900D01*
X70300Y-14000D02*
X70300Y-12750D01*
G54D43*
X70300Y-12750D02*
X70250Y-12700D01*
G54D44*
X96100Y-15637D02*
X96100Y-15400D01*
X96100Y-15400D02*
X98100Y-13400D01*
G54D40*
X96100Y-15400D02*
X98100Y-13400D01*
X96100Y-15637D02*
X96062Y-15637D01*
X96062Y-15637D02*
X91800Y-19900D01*
X99000Y-15989D02*
X99000Y-15600D01*
X99000Y-15600D02*
X98100Y-14700D01*
X98100Y-14700D02*
X98100Y-13400D01*
X60700Y-27500D02*
X62100Y-27500D01*
X58800Y-25600D02*
X58600Y-25400D01*
X60700Y-27500D02*
X60200Y-27000D01*
X58550Y-25300D02*
X58550Y-25350D01*
X58550Y-25350D02*
X58600Y-25400D01*
X69400Y-27500D02*
X70100Y-27500D01*
X91800Y-19900D02*
X77700Y-19900D01*
X70100Y-27500D02*
X77700Y-19900D01*
X58550Y-25300D02*
X53600Y-25300D01*
G54D43*
X53600Y-25300D02*
X53150Y-24850D01*
X53150Y-22900D02*
X53150Y-24850D01*
G54D40*
X58550Y-25150D02*
X58550Y-25300D01*
X58550Y-22900D02*
X58550Y-25150D01*
X69300Y-14800D02*
X69500Y-15000D01*
X72300Y-15000D02*
X72700Y-14600D01*
X69500Y-15000D02*
X72300Y-15000D01*
X69300Y-14000D02*
X69300Y-14800D01*
X72700Y-14600D02*
X72700Y-13650D01*
X75300Y-9500D02*
X74800Y-9500D01*
X74800Y-9500D02*
X72700Y-11600D01*
G54D43*
X39400Y-29900D02*
X39800Y-29500D01*
X20400Y-27875D02*
X20400Y-28600D01*
X22600Y-30800D02*
X20400Y-28600D01*
X38500Y-30800D02*
X39400Y-29900D01*
X22600Y-30800D02*
X38500Y-30800D01*
X39800Y-29500D02*
X62600Y-29500D01*
G54D40*
X73400Y-18700D02*
X73400Y-12550D01*
X73400Y-18700D02*
X62600Y-29500D01*
X72700Y-12550D02*
X73400Y-12550D01*
X73400Y-12550D02*
X74100Y-12550D01*
X72700Y-12550D02*
X72700Y-11600D01*
X62800Y-20496D02*
X62800Y-22500D01*
X62596Y-22704D02*
X62300Y-22704D01*
X62800Y-22500D02*
X62596Y-22704D01*
X62000Y-22704D02*
X61996Y-22704D01*
G54D43*
X60050Y-23350D02*
X60200Y-23500D01*
X60200Y-23500D02*
X60900Y-23500D01*
X60050Y-22900D02*
X60050Y-23350D01*
G54D40*
X61700Y-23000D02*
X61200Y-23500D01*
X61200Y-23500D02*
X60900Y-23500D01*
X62300Y-22704D02*
X62000Y-22704D01*
X61996Y-22704D02*
X61700Y-23000D01*
X62200Y-19904D02*
X62104Y-19904D01*
X62104Y-19904D02*
X61000Y-18800D01*
X62200Y-19904D02*
X62200Y-21700D01*
X62200Y-21700D02*
X61804Y-22096D01*
X60550Y-22900D02*
X61000Y-22900D01*
X61200Y-22700D02*
X61804Y-22096D01*
X61200Y-22700D02*
X61200Y-22700D01*
X61000Y-22900D02*
X61200Y-22700D01*
X62800Y-19904D02*
X62200Y-19904D01*
X59996Y-18000D02*
X60600Y-18000D01*
X61000Y-18400D02*
X61000Y-18800D01*
X60600Y-18000D02*
X61000Y-18400D01*
X61300Y-24200D02*
X61700Y-24200D01*
X62300Y-23600D02*
X62300Y-23296D01*
X61700Y-24200D02*
X62300Y-23600D01*
X55900Y-22200D02*
X56600Y-22900D01*
X56600Y-23300D02*
X56900Y-23600D01*
X56600Y-22900D02*
X56600Y-23300D01*
X57900Y-24200D02*
X57900Y-23600D01*
X61300Y-24200D02*
X60200Y-24200D01*
X55900Y-21796D02*
X55900Y-22200D01*
X58050Y-23450D02*
X58050Y-22900D01*
X57900Y-23600D02*
X58050Y-23450D01*
X56900Y-23600D02*
X57900Y-23600D01*
X55900Y-20900D02*
X56600Y-20900D01*
X57550Y-21850D02*
X57550Y-22900D01*
X56600Y-20900D02*
X57550Y-21850D01*
X55900Y-21204D02*
X55900Y-20900D01*
X55900Y-20900D02*
X55900Y-20496D01*
X53650Y-18900D02*
X53650Y-19750D01*
X54700Y-20800D02*
X55100Y-20800D01*
X53650Y-19750D02*
X54700Y-20800D01*
X55100Y-20496D02*
X55100Y-20800D01*
X55100Y-20800D02*
X55100Y-21204D01*
G54D43*
X28700Y-24504D02*
X28000Y-24504D01*
X28000Y-24504D02*
X27996Y-24500D01*
X27996Y-24500D02*
X27250Y-24500D01*
X27250Y-24500D02*
X27100Y-24650D01*
X24204Y-29000D02*
X24204Y-27604D01*
X23750Y-27150D02*
X23100Y-27150D01*
X24204Y-27604D02*
X23750Y-27150D01*
X23100Y-27150D02*
X22354Y-27150D01*
X22354Y-27150D02*
X22300Y-27204D01*
X22354Y-27150D02*
X22300Y-27204D01*
X22300Y-27796D02*
X22300Y-28700D01*
X23300Y-29700D02*
X24404Y-29700D01*
X22300Y-28700D02*
X23300Y-29700D01*
X23100Y-27650D02*
X22446Y-27650D01*
X22446Y-27650D02*
X22300Y-27796D01*
X25800Y-25150D02*
X25750Y-25150D01*
X25750Y-25150D02*
X25200Y-25700D01*
X25000Y-29000D02*
X24796Y-29000D01*
X25200Y-28800D02*
X25000Y-29000D01*
X25200Y-25700D02*
X25200Y-28800D01*
X27100Y-25150D02*
X27946Y-25150D01*
X27946Y-25150D02*
X28000Y-25096D01*
X27100Y-25150D02*
X25800Y-25150D01*
X25750Y-25150D02*
X25300Y-25600D01*
G54D40*
X53000Y-25900D02*
X53000Y-26400D01*
X57200Y-27800D02*
X57200Y-26800D01*
X57000Y-28000D02*
X57200Y-27800D01*
X54600Y-28000D02*
X57000Y-28000D01*
X53000Y-26400D02*
X54600Y-28000D01*
X51596Y-24200D02*
X51596Y-24496D01*
X51596Y-24496D02*
X53000Y-25900D01*
X51596Y-24200D02*
X51596Y-22954D01*
X51596Y-22954D02*
X51650Y-22900D01*
X49800Y-20296D02*
X49800Y-21000D01*
X50396Y-21596D02*
X51150Y-22350D01*
X51150Y-22350D02*
X51150Y-22900D01*
X49800Y-21000D02*
X50396Y-21596D01*
X51150Y-22900D02*
X51150Y-24054D01*
G54D43*
X51150Y-24054D02*
X51004Y-24200D01*
G54D40*
X57475Y-17900D02*
X57475Y-17425D01*
X57700Y-17200D02*
X58004Y-17200D01*
X57475Y-17425D02*
X57700Y-17200D01*
X57550Y-18900D02*
X57550Y-17975D01*
X57550Y-17975D02*
X57475Y-17900D01*
G54D43*
X58050Y-17246D02*
X58004Y-17200D01*
G54D40*
X53704Y-23700D02*
X53704Y-24400D01*
X53650Y-22900D02*
X53650Y-23646D01*
G54D43*
X53650Y-23646D02*
X53704Y-23700D01*
G54D40*
X54700Y-22900D02*
X55100Y-22500D01*
X54700Y-23300D02*
X54700Y-22900D01*
G54D43*
X54296Y-23700D02*
X54300Y-23700D01*
G54D40*
X54300Y-23700D02*
X54700Y-23300D01*
X54150Y-22900D02*
X54700Y-22900D01*
X55100Y-21796D02*
X55100Y-22500D01*
G54D43*
X12900Y-34275D02*
X12185Y-34275D01*
X12185Y-34275D02*
X11810Y-33900D01*
X8900Y-34275D02*
X8185Y-34275D01*
X8185Y-34275D02*
X7810Y-33900D01*
X15000Y-34275D02*
X15614Y-34275D01*
X15614Y-34275D02*
X15989Y-33900D01*
X31100Y-22096D02*
X31100Y-22200D01*
G54D40*
X30604Y-22696D02*
X30200Y-22696D01*
X31100Y-22200D02*
X30604Y-22696D01*
X30196Y-23500D02*
X30196Y-22700D01*
G54D43*
X30196Y-22700D02*
X30200Y-22696D01*
G54D40*
X32100Y-22150D02*
X31154Y-22150D01*
G54D43*
X31154Y-22150D02*
X31100Y-22096D01*
G54D40*
X27800Y-19204D02*
X28500Y-19204D01*
X27100Y-19550D02*
X27100Y-19300D01*
X27196Y-19204D02*
X27800Y-19204D01*
X27100Y-19300D02*
X27196Y-19204D01*
M02*
