G04 (created by PCBNEW (2013-07-07 BZR 4022)-stable) date 3/25/2016 2:43:32 AM*
%MOIN*%
G04 Gerber Fmt 3.4, Leading zero omitted, Abs format*
%FSLAX34Y34*%
G01*
G70*
G90*
G04 APERTURE LIST*
%ADD10C,0.00590551*%
%ADD11C,0.11811*%
%ADD12R,0.055X0.055*%
%ADD13R,0.11811X0.110236*%
%ADD14C,0.0944882*%
%ADD15C,0.0787402*%
%ADD16C,0.0744094*%
%ADD17O,0.0598425X0.03*%
%ADD18C,0.0433071*%
%ADD19R,0.063X0.071*%
%ADD20R,0.059X0.0512*%
%ADD21R,0.0512X0.059*%
%ADD22C,0.0393701*%
%ADD23R,0.0433071X0.110236*%
%ADD24R,0.110236X0.0433071*%
%ADD25C,0.0301575*%
%ADD26C,0.01*%
%ADD27C,0.1*%
G04 APERTURE END LIST*
G54D10*
G54D11*
X77400Y-29000D03*
G54D12*
X116400Y-32300D03*
X32800Y-63900D03*
X36800Y-63900D03*
X40800Y-63900D03*
X43800Y-63900D03*
X46800Y-63900D03*
X58900Y-65900D03*
X60900Y-65900D03*
X37800Y-63900D03*
X33800Y-63900D03*
X115400Y-32300D03*
X66900Y-65900D03*
X64900Y-65900D03*
X63900Y-65900D03*
X62900Y-65900D03*
X103500Y-32300D03*
X99700Y-26800D03*
X96700Y-26800D03*
X93700Y-32300D03*
X99800Y-63900D03*
X72000Y-54500D03*
X76000Y-54500D03*
X80000Y-54500D03*
X83000Y-54500D03*
X86000Y-54500D03*
X85800Y-63900D03*
X89800Y-63900D03*
X93800Y-63900D03*
X96800Y-63900D03*
X86700Y-26800D03*
X91700Y-32300D03*
X94700Y-26800D03*
X97700Y-26800D03*
X100700Y-26800D03*
X104500Y-32300D03*
X106500Y-26800D03*
X109500Y-26800D03*
X112500Y-32300D03*
X21900Y-39300D03*
X61500Y-26800D03*
X65500Y-26800D03*
X68500Y-26800D03*
X71500Y-26800D03*
X73500Y-26800D03*
X74500Y-32300D03*
X77500Y-32300D03*
X80700Y-26800D03*
X21900Y-40300D03*
X60500Y-32300D03*
X112700Y-58600D03*
X112700Y-60600D03*
X112700Y-62600D03*
X112700Y-64600D03*
X22000Y-76800D03*
X22000Y-73200D03*
X22000Y-66600D03*
X22000Y-63600D03*
X40500Y-32300D03*
X83700Y-26800D03*
X80500Y-32300D03*
X76500Y-32300D03*
X64500Y-26800D03*
X60500Y-26800D03*
X59500Y-32300D03*
X55500Y-32300D03*
X44500Y-32300D03*
X42500Y-32300D03*
X57900Y-54500D03*
X39500Y-26900D03*
X43500Y-32300D03*
X45500Y-32300D03*
X46500Y-32300D03*
X47500Y-26900D03*
X50500Y-26900D03*
X53500Y-26900D03*
X56500Y-32300D03*
X30300Y-54500D03*
X30300Y-55500D03*
X30300Y-68700D03*
X30300Y-69700D03*
X30300Y-72700D03*
X30300Y-73700D03*
X22000Y-84600D03*
X119300Y-70800D03*
X119300Y-68800D03*
X30250Y-33750D03*
X30300Y-53500D03*
X30300Y-52500D03*
X30300Y-51500D03*
X30300Y-49500D03*
X30300Y-46500D03*
X30300Y-44500D03*
X30300Y-43500D03*
X105000Y-68200D03*
X30300Y-83700D03*
X105000Y-82200D03*
X105000Y-81200D03*
X105000Y-79200D03*
X105000Y-77200D03*
X105000Y-76200D03*
X21900Y-50600D03*
X22000Y-59000D03*
X22000Y-65600D03*
X22000Y-72200D03*
X105000Y-83200D03*
X30300Y-81700D03*
X105000Y-80200D03*
X105000Y-78200D03*
X105000Y-75200D03*
X105000Y-74200D03*
X105000Y-71200D03*
X105000Y-70200D03*
X30300Y-45500D03*
X30300Y-47500D03*
X78000Y-54500D03*
X119700Y-59300D03*
X114600Y-44300D03*
X115600Y-38600D03*
X108200Y-54500D03*
X105200Y-54500D03*
X98800Y-63900D03*
X95800Y-63900D03*
X92800Y-63900D03*
X88800Y-63900D03*
X119700Y-62400D03*
X74000Y-54500D03*
X59900Y-54500D03*
X55900Y-54500D03*
X70900Y-65900D03*
X73900Y-65900D03*
X47900Y-54500D03*
X50900Y-54500D03*
X53900Y-54500D03*
X30300Y-50500D03*
X30300Y-79700D03*
X30300Y-77700D03*
X30300Y-76700D03*
X105000Y-73200D03*
X105000Y-72200D03*
X105000Y-69200D03*
X30300Y-58500D03*
X30300Y-48500D03*
X22000Y-57000D03*
X30300Y-56500D03*
X30300Y-57500D03*
X30300Y-70700D03*
X30300Y-71700D03*
X30300Y-74700D03*
X30300Y-75700D03*
X119400Y-77200D03*
X113500Y-74200D03*
X106200Y-54500D03*
X113500Y-80200D03*
X119400Y-78200D03*
X113500Y-75200D03*
X113500Y-72200D03*
X119700Y-58300D03*
X119700Y-46100D03*
X115600Y-44300D03*
X118700Y-40300D03*
X109200Y-54500D03*
X113500Y-82200D03*
X103200Y-54500D03*
X101200Y-54500D03*
X91800Y-63900D03*
X87800Y-63900D03*
X84800Y-63900D03*
X85000Y-54500D03*
X82000Y-54500D03*
X79000Y-54500D03*
X21900Y-49600D03*
X69500Y-26800D03*
X72500Y-26800D03*
X74500Y-26800D03*
X75500Y-32300D03*
X78500Y-32300D03*
X81700Y-26800D03*
X84700Y-26800D03*
X87700Y-26800D03*
X21900Y-47600D03*
X75000Y-54500D03*
X22000Y-58000D03*
X22000Y-64600D03*
X22000Y-71200D03*
X22000Y-74200D03*
X22000Y-77800D03*
X22000Y-79800D03*
X29250Y-33750D03*
X27250Y-33750D03*
X63500Y-26800D03*
X90700Y-32300D03*
X89700Y-32300D03*
X88700Y-32300D03*
X87700Y-32300D03*
X85700Y-26800D03*
X82700Y-26800D03*
X79500Y-32300D03*
X70500Y-26800D03*
X67500Y-26800D03*
X94700Y-32300D03*
X59500Y-26800D03*
X58500Y-32300D03*
X54500Y-32300D03*
X52500Y-26900D03*
X49500Y-26900D03*
X41500Y-32300D03*
X40500Y-26900D03*
X38500Y-26900D03*
X65900Y-65900D03*
X60900Y-54500D03*
X56900Y-54500D03*
X52900Y-54500D03*
X49900Y-54500D03*
X46900Y-54500D03*
X72900Y-65900D03*
X69900Y-65900D03*
X67900Y-65900D03*
X66500Y-26800D03*
X44800Y-63900D03*
X41800Y-63900D03*
X38800Y-63900D03*
X34800Y-63900D03*
X117400Y-32300D03*
X113500Y-26800D03*
X110500Y-26800D03*
X107500Y-32300D03*
X30300Y-80700D03*
X119700Y-51100D03*
X119700Y-50100D03*
X119700Y-55300D03*
X119700Y-54300D03*
X119700Y-63400D03*
X113500Y-73200D03*
X119400Y-76200D03*
X119400Y-79200D03*
X30300Y-78700D03*
X118700Y-46100D03*
X30300Y-82700D03*
X112700Y-65600D03*
X112700Y-63600D03*
X112700Y-61600D03*
X112700Y-59600D03*
X21900Y-38300D03*
X68900Y-65900D03*
X71900Y-65900D03*
X22000Y-85600D03*
X21900Y-48600D03*
X21900Y-41300D03*
X22000Y-82600D03*
X22000Y-78800D03*
X113500Y-81200D03*
X113500Y-83200D03*
X28250Y-33750D03*
X119300Y-67800D03*
X119300Y-69800D03*
X45900Y-54500D03*
X22000Y-83600D03*
X99200Y-54500D03*
X100200Y-54500D03*
X102200Y-54500D03*
X104200Y-54500D03*
X107200Y-54500D03*
X114600Y-38600D03*
X119700Y-40300D03*
X59900Y-65900D03*
X108500Y-32300D03*
X111500Y-32300D03*
X114500Y-26800D03*
X118400Y-32300D03*
X35800Y-63900D03*
X39800Y-63900D03*
X42800Y-63900D03*
X45800Y-63900D03*
X47800Y-63900D03*
X105500Y-26800D03*
X61900Y-65900D03*
X47500Y-32300D03*
X48500Y-26900D03*
X51500Y-26900D03*
X54500Y-26900D03*
X57500Y-32300D03*
X61500Y-32300D03*
X62500Y-26800D03*
X87000Y-54500D03*
X48900Y-54500D03*
X51900Y-54500D03*
X54900Y-54500D03*
X58900Y-54500D03*
X73000Y-54500D03*
X77000Y-54500D03*
X81000Y-54500D03*
X84000Y-54500D03*
X37500Y-26900D03*
X86800Y-63900D03*
X90800Y-63900D03*
X94800Y-63900D03*
X97800Y-63900D03*
X92700Y-32300D03*
X95700Y-26800D03*
X98700Y-26800D03*
X101700Y-26800D03*
G54D11*
X24700Y-28900D03*
X32300Y-86100D03*
X116800Y-85900D03*
X116800Y-29500D03*
X68500Y-71500D03*
X57400Y-29000D03*
G54D13*
X77927Y-76700D03*
X73872Y-76700D03*
G54D14*
X93900Y-86900D03*
X93900Y-84931D03*
X95868Y-84931D03*
X95868Y-86900D03*
X83300Y-86900D03*
X83300Y-84931D03*
X85268Y-84931D03*
X85268Y-86900D03*
X38200Y-86500D03*
X38200Y-84531D03*
X40168Y-84531D03*
X40168Y-86500D03*
X45000Y-86500D03*
X45000Y-84531D03*
X46968Y-84531D03*
X46968Y-86500D03*
G54D15*
X65700Y-82400D03*
X65700Y-80400D03*
X57700Y-77400D03*
X57700Y-81400D03*
X57700Y-85400D03*
X65700Y-85400D03*
G54D16*
X89800Y-85651D03*
X89800Y-76148D03*
G54D17*
X74788Y-84555D03*
X76600Y-84555D03*
X78411Y-84555D03*
X74788Y-86800D03*
X76600Y-86800D03*
X78411Y-86800D03*
G54D18*
X41915Y-77800D03*
X43884Y-77800D03*
X84200Y-81284D03*
X84200Y-79315D03*
G54D19*
X63750Y-74900D03*
X62650Y-74900D03*
X60750Y-87400D03*
X59650Y-87400D03*
G54D20*
X77900Y-80775D03*
X77900Y-80025D03*
X98200Y-85725D03*
X98200Y-86475D03*
X76600Y-82225D03*
X76600Y-82975D03*
G54D21*
X46475Y-82700D03*
X45725Y-82700D03*
G54D20*
X48300Y-76225D03*
X48300Y-76975D03*
G54D22*
X80187Y-78647D03*
X79400Y-81600D03*
G54D23*
X48289Y-80000D03*
X49510Y-80000D03*
X49510Y-82900D03*
X48289Y-82900D03*
G54D24*
X98200Y-83710D03*
X98200Y-82489D03*
G54D11*
X88200Y-71500D03*
X48800Y-71500D03*
X36300Y-75700D03*
X97400Y-75900D03*
G54D25*
X30300Y-77700D02*
X22100Y-77700D01*
G54D26*
X22100Y-77700D02*
X22000Y-77800D01*
G54D25*
X30300Y-73700D02*
X28900Y-73700D01*
X27400Y-72200D02*
X22000Y-72200D01*
X28900Y-73700D02*
X27400Y-72200D01*
X113500Y-72200D02*
X105000Y-72200D01*
X105000Y-83200D02*
X113500Y-83200D01*
X113500Y-82200D02*
X105000Y-82200D01*
X113500Y-80200D02*
X105000Y-80200D01*
X105000Y-81200D02*
X113500Y-81200D01*
X113500Y-50200D02*
X114100Y-50800D01*
X118700Y-40300D02*
X116600Y-40300D01*
X116600Y-40300D02*
X113500Y-43400D01*
X113500Y-59600D02*
X112700Y-59600D01*
X113500Y-50200D02*
X113500Y-43400D01*
X114100Y-59000D02*
X113500Y-59600D01*
X114100Y-50800D02*
X114100Y-59000D01*
X114600Y-45200D02*
X115500Y-46100D01*
X115500Y-58900D02*
X114700Y-59700D01*
X115500Y-46100D02*
X115500Y-58900D01*
X114600Y-44300D02*
X114600Y-45200D01*
X112700Y-60600D02*
X113800Y-60600D01*
X114700Y-59700D02*
X113800Y-60600D01*
X105200Y-54500D02*
X105200Y-34500D01*
X106500Y-33200D02*
X106500Y-28300D01*
X105200Y-34500D02*
X106500Y-33200D01*
X106500Y-26800D02*
X106500Y-28300D01*
X119700Y-63400D02*
X118300Y-63400D01*
G54D26*
X112800Y-65500D02*
X112700Y-65600D01*
G54D25*
X116200Y-65500D02*
X112800Y-65500D01*
X118300Y-63400D02*
X116200Y-65500D01*
X114100Y-61600D02*
X116600Y-59100D01*
X118700Y-46100D02*
X118100Y-46100D01*
X114100Y-61600D02*
X112700Y-61600D01*
X116600Y-47600D02*
X118100Y-46100D01*
X116600Y-47600D02*
X116600Y-59100D01*
X114500Y-62600D02*
X117500Y-59600D01*
X112700Y-62600D02*
X114500Y-62600D01*
X118900Y-51100D02*
X117500Y-52500D01*
X117500Y-52500D02*
X117500Y-59600D01*
X118900Y-51100D02*
X119700Y-51100D01*
X118400Y-60200D02*
X115000Y-63600D01*
X112700Y-63600D02*
X115000Y-63600D01*
X119100Y-55300D02*
X119700Y-55300D01*
X118400Y-56000D02*
X118400Y-60200D01*
X119100Y-55300D02*
X118400Y-56000D01*
X119700Y-60500D02*
X115600Y-64600D01*
X112700Y-64600D02*
X115600Y-64600D01*
X119700Y-60500D02*
X119700Y-59300D01*
X64000Y-41700D02*
X63600Y-41300D01*
X63600Y-30400D02*
X61500Y-28300D01*
X63600Y-41300D02*
X63600Y-30400D01*
X61500Y-26800D02*
X61500Y-28300D01*
X64000Y-41700D02*
X73400Y-51100D01*
X76000Y-54500D02*
X76000Y-53700D01*
X76000Y-53700D02*
X73400Y-51100D01*
X58500Y-42600D02*
X70400Y-54500D01*
X72000Y-54500D02*
X70400Y-54500D01*
X58500Y-36800D02*
X58500Y-32300D01*
X58500Y-37100D02*
X58500Y-36800D01*
X58500Y-42600D02*
X58500Y-37100D01*
X52900Y-54500D02*
X52900Y-50300D01*
X47500Y-44900D02*
X47500Y-37800D01*
X52900Y-50300D02*
X47500Y-44900D01*
X47500Y-37800D02*
X47500Y-32300D01*
X50900Y-51300D02*
X45500Y-45900D01*
X45500Y-32300D02*
X45500Y-45900D01*
X50900Y-51300D02*
X50900Y-54500D01*
X48900Y-52200D02*
X43500Y-46800D01*
X43500Y-32300D02*
X43500Y-46800D01*
X48900Y-52200D02*
X48900Y-54500D01*
X46900Y-53100D02*
X41500Y-47700D01*
X41500Y-32300D02*
X41500Y-47700D01*
X46900Y-53100D02*
X46900Y-54500D01*
X45900Y-54500D02*
X45900Y-53700D01*
X37500Y-45300D02*
X37500Y-26900D01*
X45900Y-53700D02*
X37500Y-45300D01*
X76100Y-46300D02*
X69500Y-39700D01*
X69500Y-39700D02*
X69500Y-28600D01*
X82000Y-54500D02*
X82000Y-52200D01*
X76100Y-46300D02*
X76100Y-46300D01*
X82000Y-52200D02*
X76100Y-46300D01*
X69500Y-28600D02*
X69500Y-28600D01*
X69500Y-28600D02*
X69500Y-26800D01*
X61500Y-42000D02*
X61500Y-41600D01*
X61500Y-32300D02*
X61500Y-41600D01*
X72200Y-52300D02*
X71900Y-52300D01*
X71900Y-52300D02*
X71800Y-52300D01*
X71800Y-52300D02*
X61500Y-42000D01*
X74000Y-54100D02*
X74000Y-54500D01*
X74000Y-54100D02*
X73450Y-53550D01*
X73450Y-53550D02*
X72200Y-52300D01*
X62600Y-41500D02*
X75000Y-53900D01*
X75000Y-54500D02*
X75000Y-53900D01*
X60500Y-28600D02*
X60500Y-26800D01*
X62600Y-30700D02*
X60500Y-28600D01*
X62600Y-41500D02*
X62600Y-30700D01*
X64500Y-40800D02*
X74000Y-50300D01*
X77000Y-53300D02*
X74000Y-50300D01*
X77000Y-53300D02*
X77000Y-54500D01*
X62500Y-28000D02*
X62500Y-26800D01*
X64500Y-30000D02*
X62500Y-28000D01*
X64500Y-40800D02*
X64500Y-30000D01*
X66200Y-41200D02*
X65500Y-40500D01*
X66200Y-41200D02*
X74500Y-49500D01*
X65500Y-40500D02*
X65500Y-29500D01*
X65500Y-29500D02*
X64500Y-28500D01*
X78000Y-54500D02*
X78000Y-53000D01*
X78000Y-53000D02*
X74500Y-49500D01*
X64500Y-26800D02*
X64500Y-28500D01*
X79000Y-52800D02*
X66500Y-40300D01*
X66500Y-38900D02*
X66500Y-29100D01*
X66500Y-29100D02*
X65500Y-28100D01*
X79000Y-54500D02*
X79000Y-52800D01*
X65500Y-28100D02*
X65500Y-26800D01*
X66500Y-38900D02*
X66500Y-40300D01*
X75100Y-47800D02*
X67450Y-40150D01*
X67450Y-40150D02*
X67450Y-28550D01*
X67450Y-28550D02*
X67100Y-28200D01*
X67100Y-28200D02*
X66500Y-27600D01*
X80000Y-54500D02*
X80000Y-52700D01*
X80000Y-52700D02*
X75100Y-47800D01*
X66500Y-27600D02*
X66500Y-26800D01*
X68500Y-26800D02*
X68500Y-39900D01*
X68500Y-39900D02*
X75600Y-47000D01*
X81000Y-54500D02*
X81000Y-52400D01*
X81000Y-52400D02*
X75600Y-47000D01*
X70500Y-39200D02*
X83000Y-51700D01*
X83000Y-54500D02*
X83000Y-51700D01*
X70500Y-39200D02*
X70500Y-28800D01*
X70500Y-28800D02*
X70500Y-28800D01*
X70500Y-26800D02*
X70500Y-28800D01*
X84000Y-51200D02*
X71600Y-38800D01*
X84000Y-54500D02*
X84000Y-51200D01*
X71600Y-29200D02*
X72500Y-28300D01*
X72500Y-28300D02*
X72500Y-26800D01*
X71600Y-38800D02*
X71600Y-29200D01*
X85000Y-50700D02*
X72500Y-38200D01*
X85000Y-54500D02*
X85000Y-50700D01*
X73500Y-28700D02*
X73500Y-26800D01*
X72500Y-29700D02*
X73500Y-28700D01*
X72500Y-38200D02*
X72500Y-29700D01*
X54900Y-54500D02*
X54900Y-49400D01*
X48500Y-29500D02*
X48500Y-26900D01*
X49600Y-30600D02*
X48500Y-29500D01*
X49600Y-44100D02*
X49600Y-30600D01*
X54900Y-49400D02*
X49600Y-44100D01*
X42500Y-47200D02*
X47900Y-52600D01*
X42500Y-32300D02*
X42500Y-47200D01*
X47900Y-52600D02*
X47900Y-54500D01*
X46500Y-45400D02*
X51900Y-50800D01*
X46500Y-32300D02*
X46500Y-38600D01*
X46500Y-45400D02*
X46500Y-38600D01*
X51900Y-50800D02*
X51900Y-54500D01*
X50500Y-26900D02*
X50500Y-43600D01*
X50500Y-43600D02*
X55900Y-49000D01*
X55900Y-49000D02*
X55900Y-54500D01*
X51500Y-43100D02*
X56900Y-48500D01*
X51500Y-26900D02*
X51500Y-28100D01*
X51500Y-43100D02*
X51500Y-28100D01*
X51500Y-28100D02*
X51500Y-28100D01*
X56900Y-48500D02*
X56900Y-54500D01*
X58900Y-54500D02*
X58900Y-47400D01*
X53500Y-28400D02*
X53500Y-26900D01*
X53500Y-28400D02*
X53500Y-28400D01*
X53500Y-42000D02*
X53500Y-28400D01*
X58900Y-47400D02*
X53500Y-42000D01*
X73000Y-54200D02*
X72000Y-53200D01*
X59500Y-32300D02*
X59500Y-36900D01*
X70900Y-53100D02*
X59500Y-41700D01*
X59500Y-41700D02*
X59500Y-36900D01*
X73000Y-54200D02*
X73000Y-54500D01*
X71000Y-53200D02*
X70900Y-53100D01*
X72000Y-53200D02*
X71000Y-53200D01*
X60900Y-54500D02*
X60900Y-46500D01*
X56500Y-42100D02*
X56500Y-32300D01*
X60900Y-46500D02*
X56500Y-42100D01*
X52500Y-26900D02*
X52500Y-42500D01*
X57900Y-54500D02*
X57900Y-47900D01*
X57900Y-47900D02*
X52500Y-42500D01*
X59900Y-54500D02*
X59900Y-47000D01*
X55500Y-42600D02*
X55500Y-32300D01*
X59900Y-47000D02*
X55500Y-42600D01*
X47500Y-29900D02*
X47500Y-26900D01*
X53900Y-54500D02*
X53900Y-49800D01*
X48500Y-30900D02*
X47500Y-29900D01*
X48500Y-44400D02*
X48500Y-30900D01*
X53900Y-49800D02*
X48500Y-44400D01*
X44500Y-46400D02*
X49900Y-51800D01*
X44500Y-32300D02*
X44500Y-46400D01*
X49900Y-51800D02*
X49900Y-54500D01*
X106200Y-36400D02*
X108500Y-34100D01*
X108500Y-32300D02*
X108500Y-34100D01*
X106200Y-36400D02*
X106200Y-54500D01*
X107200Y-54500D02*
X107200Y-37700D01*
X110500Y-34400D02*
X110500Y-29200D01*
X107200Y-37700D02*
X110500Y-34400D01*
X110500Y-29200D02*
X110500Y-26800D01*
X30300Y-83700D02*
X28400Y-85600D01*
X28400Y-85600D02*
X22000Y-85600D01*
X23300Y-45800D02*
X21900Y-44400D01*
X21900Y-44400D02*
X21900Y-41300D01*
X30300Y-50500D02*
X28000Y-50500D01*
X28000Y-50500D02*
X23300Y-45800D01*
X30300Y-82700D02*
X29600Y-82700D01*
X27700Y-84600D02*
X22000Y-84600D01*
X29600Y-82700D02*
X27700Y-84600D01*
X21900Y-50600D02*
X22300Y-50600D01*
X26200Y-54500D02*
X30300Y-54500D01*
X22300Y-50600D02*
X26200Y-54500D01*
X21900Y-49600D02*
X22800Y-49600D01*
X26700Y-53500D02*
X30300Y-53500D01*
X22800Y-49600D02*
X26700Y-53500D01*
X21900Y-48600D02*
X23200Y-48600D01*
X27100Y-52500D02*
X30300Y-52500D01*
X23200Y-48600D02*
X27100Y-52500D01*
X21900Y-47600D02*
X23400Y-47600D01*
X27300Y-51500D02*
X30300Y-51500D01*
X23400Y-47600D02*
X27300Y-51500D01*
X24600Y-45600D02*
X23100Y-44100D01*
X23100Y-40900D02*
X22500Y-40300D01*
X23100Y-44100D02*
X23100Y-40900D01*
X30300Y-49500D02*
X28500Y-49500D01*
X22500Y-40300D02*
X21900Y-40300D01*
X28500Y-49500D02*
X24600Y-45600D01*
X25600Y-45300D02*
X24300Y-44000D01*
X24300Y-40400D02*
X23200Y-39300D01*
X24300Y-44000D02*
X24300Y-40400D01*
X30300Y-48500D02*
X28800Y-48500D01*
X23200Y-39300D02*
X21900Y-39300D01*
X28800Y-48500D02*
X25600Y-45300D01*
X26400Y-44900D02*
X25400Y-43900D01*
X25400Y-40000D02*
X23700Y-38300D01*
X25400Y-43900D02*
X25400Y-40000D01*
X30300Y-47500D02*
X29000Y-47500D01*
X23700Y-38300D02*
X21900Y-38300D01*
X29000Y-47500D02*
X26400Y-44900D01*
X27250Y-33750D02*
X27250Y-44550D01*
X29200Y-46500D02*
X30300Y-46500D01*
X27250Y-44550D02*
X29200Y-46500D01*
X30300Y-72700D02*
X29000Y-72700D01*
X27500Y-71200D02*
X22000Y-71200D01*
X29000Y-72700D02*
X27500Y-71200D01*
X30300Y-71700D02*
X29400Y-71700D01*
X26000Y-66600D02*
X22000Y-66600D01*
X27200Y-67800D02*
X26000Y-66600D01*
X27200Y-69500D02*
X27200Y-67800D01*
X29400Y-71700D02*
X27200Y-69500D01*
X30300Y-81700D02*
X29000Y-81700D01*
X27100Y-83600D02*
X22000Y-83600D01*
X29000Y-81700D02*
X27100Y-83600D01*
X30300Y-70700D02*
X29600Y-70700D01*
X26200Y-65600D02*
X22000Y-65600D01*
X28000Y-67400D02*
X26200Y-65600D01*
X28000Y-69100D02*
X28000Y-67400D01*
X29600Y-70700D02*
X28000Y-69100D01*
X30300Y-69700D02*
X29800Y-69700D01*
X26800Y-64600D02*
X22000Y-64600D01*
X28800Y-66600D02*
X26800Y-64600D01*
X28800Y-68700D02*
X28800Y-66600D01*
X29800Y-69700D02*
X28800Y-68700D01*
X30300Y-68700D02*
X30300Y-66600D01*
X27300Y-63600D02*
X22000Y-63600D01*
X30300Y-66600D02*
X27300Y-63600D01*
X30300Y-57500D02*
X25200Y-57500D01*
X23700Y-59000D02*
X22000Y-59000D01*
X25200Y-57500D02*
X23700Y-59000D01*
X30300Y-56500D02*
X24400Y-56500D01*
X22900Y-58000D02*
X22000Y-58000D01*
X24400Y-56500D02*
X22900Y-58000D01*
X30300Y-55500D02*
X23500Y-55500D01*
X23500Y-55500D02*
X22000Y-57000D01*
X92400Y-59200D02*
X92500Y-59100D01*
X92500Y-43500D02*
X92400Y-43400D01*
X92500Y-59100D02*
X92500Y-43500D01*
X92400Y-43400D02*
X84800Y-35800D01*
X84800Y-28800D02*
X85700Y-27900D01*
X84800Y-35800D02*
X84800Y-28800D01*
X85700Y-27900D02*
X85700Y-26800D01*
X91800Y-63900D02*
X91800Y-59800D01*
X91800Y-59800D02*
X92400Y-59200D01*
X82400Y-30800D02*
X82400Y-37900D01*
X81700Y-26800D02*
X81700Y-30100D01*
X82400Y-30800D02*
X81700Y-30100D01*
X90500Y-46000D02*
X82400Y-37900D01*
X90500Y-57400D02*
X90500Y-46000D01*
X88800Y-59100D02*
X90500Y-57400D01*
X88800Y-59100D02*
X88800Y-63900D01*
X83200Y-37200D02*
X83200Y-30300D01*
X83200Y-37200D02*
X91100Y-45100D01*
X89800Y-63900D02*
X89800Y-59400D01*
X91100Y-58100D02*
X91100Y-45100D01*
X89800Y-59400D02*
X91100Y-58100D01*
X82700Y-26800D02*
X82700Y-29800D01*
X82700Y-29800D02*
X83200Y-30300D01*
X30300Y-80700D02*
X28300Y-80700D01*
X26400Y-82600D02*
X22000Y-82600D01*
X28300Y-80700D02*
X26400Y-82600D01*
X91700Y-58700D02*
X91800Y-58600D01*
X91800Y-44300D02*
X91700Y-44200D01*
X91800Y-58600D02*
X91800Y-44300D01*
X91700Y-44200D02*
X84000Y-36500D01*
X84000Y-28300D02*
X84700Y-27600D01*
X84000Y-36500D02*
X84000Y-28300D01*
X84700Y-26800D02*
X84700Y-27600D01*
X90800Y-63900D02*
X90800Y-59600D01*
X90800Y-59600D02*
X91700Y-58700D01*
X93200Y-42600D02*
X85700Y-35100D01*
X85700Y-29300D02*
X86700Y-28300D01*
X85700Y-35100D02*
X85700Y-29300D01*
X92800Y-63900D02*
X92800Y-60000D01*
X93200Y-59600D02*
X93200Y-42600D01*
X92800Y-60000D02*
X93200Y-59600D01*
X86700Y-28300D02*
X86700Y-26800D01*
X93800Y-63900D02*
X93800Y-60500D01*
X87700Y-28700D02*
X87700Y-26800D01*
X86700Y-29700D02*
X87700Y-28700D01*
X86700Y-34600D02*
X86700Y-29700D01*
X93800Y-41700D02*
X86700Y-34600D01*
X93900Y-41800D02*
X93800Y-41700D01*
X93900Y-60400D02*
X93900Y-41800D01*
X93800Y-60500D02*
X93900Y-60400D01*
X94800Y-63900D02*
X94800Y-58800D01*
X94600Y-41000D02*
X87700Y-34100D01*
X87700Y-34100D02*
X87700Y-32300D01*
X94600Y-58600D02*
X94800Y-58800D01*
X94600Y-41000D02*
X94600Y-58600D01*
X95800Y-63900D02*
X95800Y-58700D01*
X95300Y-40200D02*
X88700Y-33600D01*
X88700Y-33600D02*
X88700Y-32300D01*
X95300Y-58200D02*
X95800Y-58700D01*
X95300Y-40200D02*
X95300Y-58200D01*
X87000Y-54500D02*
X87000Y-49700D01*
X77500Y-40200D02*
X77500Y-32300D01*
X87000Y-49700D02*
X77500Y-40200D01*
X86000Y-50200D02*
X73500Y-37700D01*
X74500Y-26800D02*
X74500Y-29000D01*
X86000Y-50200D02*
X86000Y-54500D01*
X73500Y-30000D02*
X74500Y-29000D01*
X73500Y-37700D02*
X73500Y-30000D01*
X30300Y-79700D02*
X22100Y-79700D01*
G54D26*
X22100Y-79700D02*
X22000Y-79800D01*
G54D25*
X87800Y-55000D02*
X84800Y-58000D01*
X84800Y-63900D02*
X84800Y-58000D01*
X78500Y-39700D02*
X78500Y-32300D01*
X87800Y-49000D02*
X78500Y-39700D01*
X87800Y-55000D02*
X87800Y-49000D01*
X88500Y-55700D02*
X85800Y-58400D01*
X85800Y-63900D02*
X85800Y-58400D01*
X79500Y-39200D02*
X79500Y-32300D01*
X88500Y-48200D02*
X79500Y-39200D01*
X88500Y-55700D02*
X88500Y-48200D01*
X89150Y-56350D02*
X89200Y-56300D01*
X89200Y-56300D02*
X89200Y-47500D01*
X89150Y-56350D02*
X86800Y-58700D01*
X86800Y-63900D02*
X86800Y-58700D01*
X80500Y-38800D02*
X80500Y-32300D01*
X89200Y-47500D02*
X80500Y-38800D01*
X87800Y-63900D02*
X87800Y-58900D01*
X81500Y-38400D02*
X81500Y-32900D01*
X89900Y-46800D02*
X81500Y-38400D01*
X89900Y-56800D02*
X89900Y-46800D01*
X87800Y-58900D02*
X89900Y-56800D01*
X80700Y-30300D02*
X81500Y-31100D01*
X81500Y-32900D02*
X81500Y-31100D01*
X80700Y-30300D02*
X80700Y-26800D01*
X100200Y-35100D02*
X97000Y-31900D01*
X100200Y-54500D02*
X100200Y-35100D01*
X96700Y-28600D02*
X96700Y-26800D01*
X97000Y-31900D02*
X97000Y-28900D01*
X97000Y-28900D02*
X96700Y-28600D01*
X101200Y-54500D02*
X101200Y-34500D01*
X98700Y-32000D02*
X98700Y-26800D01*
X101200Y-34500D02*
X98700Y-32000D01*
X102200Y-54500D02*
X102200Y-34000D01*
X99700Y-31500D02*
X99700Y-26800D01*
X102200Y-34000D02*
X99700Y-31500D01*
X103200Y-54500D02*
X103200Y-33500D01*
X101700Y-32000D02*
X101700Y-26800D01*
X103200Y-33500D02*
X101700Y-32000D01*
X22000Y-78800D02*
X30200Y-78800D01*
G54D26*
X30200Y-78800D02*
X30300Y-78700D01*
G54D25*
X104200Y-54500D02*
X104200Y-34100D01*
X104500Y-33800D02*
X104500Y-32300D01*
X104200Y-34100D02*
X104500Y-33800D01*
X97400Y-37900D02*
X97400Y-56700D01*
X97400Y-56700D02*
X98800Y-58100D01*
X98800Y-63900D02*
X98800Y-58100D01*
X92700Y-33200D02*
X92700Y-32300D01*
X97400Y-37900D02*
X92700Y-33200D01*
X96000Y-39300D02*
X96000Y-57700D01*
X96000Y-57700D02*
X96800Y-58500D01*
X96800Y-63900D02*
X96800Y-58500D01*
X89700Y-33000D02*
X89700Y-32300D01*
X96000Y-39300D02*
X89700Y-33000D01*
X96700Y-38600D02*
X96700Y-57200D01*
X96700Y-57200D02*
X97800Y-58300D01*
X97800Y-63900D02*
X97800Y-58300D01*
X90700Y-32600D02*
X90700Y-32300D01*
X96700Y-38600D02*
X90700Y-32600D01*
X98200Y-37300D02*
X98200Y-56300D01*
X98200Y-56300D02*
X99800Y-57900D01*
X99800Y-63900D02*
X99800Y-57900D01*
X94700Y-33800D02*
X94700Y-32300D01*
X98200Y-37300D02*
X94700Y-33800D01*
X30300Y-76700D02*
X22100Y-76700D01*
G54D26*
X22100Y-76700D02*
X22000Y-76800D01*
G54D25*
X96100Y-29400D02*
X95700Y-29000D01*
X99200Y-54500D02*
X99200Y-35600D01*
X95700Y-29000D02*
X95700Y-26800D01*
X96100Y-32500D02*
X96100Y-29400D01*
X99200Y-35600D02*
X96100Y-32500D01*
X77900Y-80025D02*
X77900Y-76727D01*
X77900Y-76727D02*
X77927Y-76700D01*
G54D27*
X84200Y-79315D02*
X84200Y-76700D01*
X80187Y-78647D02*
X80187Y-76700D01*
G54D25*
X80187Y-76700D02*
X80200Y-76700D01*
G54D27*
X77927Y-76700D02*
X80200Y-76700D01*
X80200Y-76700D02*
X84200Y-76700D01*
X84200Y-76700D02*
X89248Y-76700D01*
X89248Y-76700D02*
X89800Y-76148D01*
G54D25*
X74788Y-84555D02*
X73044Y-84555D01*
X72200Y-85400D02*
X65700Y-85400D01*
X73044Y-84555D02*
X72200Y-85400D01*
X68200Y-77900D02*
X65200Y-74900D01*
X65200Y-74900D02*
X63750Y-74900D01*
G54D27*
X73872Y-76700D02*
X69500Y-76700D01*
X69400Y-76700D02*
X68200Y-77900D01*
X68200Y-77900D02*
X65700Y-80400D01*
G54D25*
X69500Y-76700D02*
X69400Y-76700D01*
X45725Y-82700D02*
X43884Y-82700D01*
G54D27*
X45000Y-84531D02*
X43884Y-83415D01*
X43884Y-83415D02*
X43884Y-82700D01*
X43884Y-82700D02*
X43884Y-77800D01*
X45000Y-84531D02*
X46968Y-84531D01*
X57700Y-85400D02*
X49400Y-85400D01*
X48300Y-86500D02*
X45000Y-86500D01*
X49400Y-85400D02*
X48300Y-86500D01*
G54D25*
X59650Y-87400D02*
X59650Y-87350D01*
X59650Y-87350D02*
X57700Y-85400D01*
X76600Y-84555D02*
X76600Y-82975D01*
X98200Y-85725D02*
X98200Y-83710D01*
G54D27*
X92979Y-85651D02*
X93700Y-84931D01*
X89800Y-85651D02*
X92979Y-85651D01*
X93700Y-84931D02*
X95868Y-84931D01*
G54D25*
X95868Y-86700D02*
X97975Y-86700D01*
X97975Y-86700D02*
X98200Y-86475D01*
X49510Y-82900D02*
X50910Y-81500D01*
X50910Y-81500D02*
X50910Y-81400D01*
X49510Y-80000D02*
X50910Y-81400D01*
X50910Y-81400D02*
X57700Y-81400D01*
X77900Y-81600D02*
X77900Y-80775D01*
X60750Y-87400D02*
X61300Y-87400D01*
X62800Y-85900D02*
X62800Y-82400D01*
X61300Y-87400D02*
X62800Y-85900D01*
X98200Y-82489D02*
X89010Y-82489D01*
X86568Y-84931D02*
X85268Y-84931D01*
X89010Y-82489D02*
X86568Y-84931D01*
G54D27*
X83300Y-84931D02*
X83300Y-86900D01*
X84200Y-81284D02*
X84200Y-84031D01*
X84200Y-84031D02*
X83300Y-84931D01*
X83300Y-84931D02*
X82731Y-84931D01*
X82731Y-84931D02*
X79400Y-81600D01*
G54D25*
X76600Y-82225D02*
X76600Y-81600D01*
G54D27*
X79400Y-81600D02*
X77900Y-81600D01*
X77900Y-81600D02*
X76600Y-81600D01*
X76600Y-81600D02*
X69300Y-81600D01*
X68500Y-82400D02*
X65700Y-82400D01*
X69300Y-81600D02*
X68500Y-82400D01*
G54D25*
X57700Y-81400D02*
X61800Y-81400D01*
X62800Y-82400D02*
X65700Y-82400D01*
X61800Y-81400D02*
X62800Y-82400D01*
X30300Y-75700D02*
X28500Y-75700D01*
X27000Y-74200D02*
X22000Y-74200D01*
X28500Y-75700D02*
X27000Y-74200D01*
G54D27*
X40168Y-86500D02*
X40168Y-84531D01*
X41050Y-76950D02*
X40168Y-77831D01*
X40168Y-77831D02*
X40168Y-84531D01*
G54D25*
X48300Y-74900D02*
X48300Y-76225D01*
X41915Y-77800D02*
X41900Y-77800D01*
G54D27*
X41900Y-77800D02*
X41050Y-76950D01*
X43100Y-74900D02*
X44815Y-74900D01*
X41050Y-76950D02*
X43100Y-74900D01*
X57700Y-77400D02*
X57700Y-74900D01*
X44815Y-74900D02*
X48300Y-74900D01*
X48300Y-74900D02*
X57700Y-74900D01*
X57700Y-74900D02*
X60200Y-74900D01*
G54D25*
X60200Y-74900D02*
X62650Y-74900D01*
X48300Y-76975D02*
X48289Y-76985D01*
X48289Y-76985D02*
X48289Y-80000D01*
X48289Y-82900D02*
X48089Y-82700D01*
X48089Y-82700D02*
X46475Y-82700D01*
X119400Y-78200D02*
X105000Y-78200D01*
X105000Y-73200D02*
X113500Y-73200D01*
X113500Y-74200D02*
X105000Y-74200D01*
X105000Y-75200D02*
X113500Y-75200D01*
X119400Y-76200D02*
X105000Y-76200D01*
X105000Y-77200D02*
X119400Y-77200D01*
X105000Y-79200D02*
X119400Y-79200D01*
X30300Y-74700D02*
X28700Y-74700D01*
X27200Y-73200D02*
X22000Y-73200D01*
X28700Y-74700D02*
X27200Y-73200D01*
X108200Y-54500D02*
X108200Y-38400D01*
X112500Y-34100D02*
X108800Y-37800D01*
X112500Y-34100D02*
X112500Y-32300D01*
X108200Y-38400D02*
X108800Y-37800D01*
X109200Y-54500D02*
X109200Y-39200D01*
X114500Y-33900D02*
X109800Y-38600D01*
X114500Y-33900D02*
X114500Y-26800D01*
X109200Y-39200D02*
X109800Y-38600D01*
X105000Y-69200D02*
X109500Y-69200D01*
X109900Y-68800D02*
X119300Y-68800D01*
X109500Y-69200D02*
X109900Y-68800D01*
X30300Y-45500D02*
X29500Y-45500D01*
X28250Y-44250D02*
X28250Y-33750D01*
X29500Y-45500D02*
X28250Y-44250D01*
X29250Y-33750D02*
X29250Y-44150D01*
X29600Y-44500D02*
X30300Y-44500D01*
X29250Y-44150D02*
X29600Y-44500D01*
X30300Y-43500D02*
X30300Y-33800D01*
G54D26*
X30300Y-33800D02*
X30250Y-33750D01*
G54D25*
X105000Y-68200D02*
X108900Y-68200D01*
X109300Y-67800D02*
X119300Y-67800D01*
X108900Y-68200D02*
X109300Y-67800D01*
X112700Y-55800D02*
X112300Y-55400D01*
X112700Y-58600D02*
X112700Y-55800D01*
X112300Y-55400D02*
X112300Y-40200D01*
X113900Y-38600D02*
X112300Y-40200D01*
X113900Y-38600D02*
X114600Y-38600D01*
X105000Y-70200D02*
X109900Y-70200D01*
X110300Y-69800D02*
X119300Y-69800D01*
X109900Y-70200D02*
X110300Y-69800D01*
X105000Y-71200D02*
X118900Y-71200D01*
G54D26*
X118900Y-71200D02*
X119300Y-70800D01*
M02*
