G04 (created by PCBNEW (2013-07-07 BZR 4022)-stable) date 3/25/2016 2:43:32 AM*
%MOIN*%
G04 Gerber Fmt 3.4, Leading zero omitted, Abs format*
%FSLAX34Y34*%
G01*
G70*
G90*
G04 APERTURE LIST*
%ADD10C,0.00590551*%
%ADD11C,0.11811*%
%ADD12R,0.055X0.055*%
%ADD13C,0.0944882*%
%ADD14C,0.0787402*%
%ADD15C,0.0744094*%
%ADD16O,0.0598425X0.03*%
%ADD17C,0.0433071*%
%ADD18C,0.0393701*%
%ADD19C,0.0301575*%
%ADD20C,0.0201575*%
%ADD21C,0.01*%
G04 APERTURE END LIST*
G54D10*
G54D11*
X77400Y-29000D03*
G54D12*
X116400Y-32300D03*
X32800Y-63900D03*
X36800Y-63900D03*
X40800Y-63900D03*
X43800Y-63900D03*
X46800Y-63900D03*
X58900Y-65900D03*
X60900Y-65900D03*
X37800Y-63900D03*
X33800Y-63900D03*
X115400Y-32300D03*
X66900Y-65900D03*
X64900Y-65900D03*
X63900Y-65900D03*
X62900Y-65900D03*
X103500Y-32300D03*
X99700Y-26800D03*
X96700Y-26800D03*
X93700Y-32300D03*
X99800Y-63900D03*
X72000Y-54500D03*
X76000Y-54500D03*
X80000Y-54500D03*
X83000Y-54500D03*
X86000Y-54500D03*
X85800Y-63900D03*
X89800Y-63900D03*
X93800Y-63900D03*
X96800Y-63900D03*
X86700Y-26800D03*
X91700Y-32300D03*
X94700Y-26800D03*
X97700Y-26800D03*
X100700Y-26800D03*
X104500Y-32300D03*
X106500Y-26800D03*
X109500Y-26800D03*
X112500Y-32300D03*
X21900Y-39300D03*
X61500Y-26800D03*
X65500Y-26800D03*
X68500Y-26800D03*
X71500Y-26800D03*
X73500Y-26800D03*
X74500Y-32300D03*
X77500Y-32300D03*
X80700Y-26800D03*
X21900Y-40300D03*
X60500Y-32300D03*
X112700Y-58600D03*
X112700Y-60600D03*
X112700Y-62600D03*
X112700Y-64600D03*
X22000Y-76800D03*
X22000Y-73200D03*
X22000Y-66600D03*
X22000Y-63600D03*
X40500Y-32300D03*
X83700Y-26800D03*
X80500Y-32300D03*
X76500Y-32300D03*
X64500Y-26800D03*
X60500Y-26800D03*
X59500Y-32300D03*
X55500Y-32300D03*
X44500Y-32300D03*
X42500Y-32300D03*
X57900Y-54500D03*
X39500Y-26900D03*
X43500Y-32300D03*
X45500Y-32300D03*
X46500Y-32300D03*
X47500Y-26900D03*
X50500Y-26900D03*
X53500Y-26900D03*
X56500Y-32300D03*
X30300Y-54500D03*
X30300Y-55500D03*
X30300Y-68700D03*
X30300Y-69700D03*
X30300Y-72700D03*
X30300Y-73700D03*
X22000Y-84600D03*
X119300Y-70800D03*
X119300Y-68800D03*
X30250Y-33750D03*
X30300Y-53500D03*
X30300Y-52500D03*
X30300Y-51500D03*
X30300Y-49500D03*
X30300Y-46500D03*
X30300Y-44500D03*
X30300Y-43500D03*
X105000Y-68200D03*
X30300Y-83700D03*
X105000Y-82200D03*
X105000Y-81200D03*
X105000Y-79200D03*
X105000Y-77200D03*
X105000Y-76200D03*
X21900Y-50600D03*
X22000Y-59000D03*
X22000Y-65600D03*
X22000Y-72200D03*
X105000Y-83200D03*
X30300Y-81700D03*
X105000Y-80200D03*
X105000Y-78200D03*
X105000Y-75200D03*
X105000Y-74200D03*
X105000Y-71200D03*
X105000Y-70200D03*
X30300Y-45500D03*
X30300Y-47500D03*
X78000Y-54500D03*
X119700Y-59300D03*
X114600Y-44300D03*
X115600Y-38600D03*
X108200Y-54500D03*
X105200Y-54500D03*
X98800Y-63900D03*
X95800Y-63900D03*
X92800Y-63900D03*
X88800Y-63900D03*
X119700Y-62400D03*
X74000Y-54500D03*
X59900Y-54500D03*
X55900Y-54500D03*
X70900Y-65900D03*
X73900Y-65900D03*
X47900Y-54500D03*
X50900Y-54500D03*
X53900Y-54500D03*
X30300Y-50500D03*
X30300Y-79700D03*
X30300Y-77700D03*
X30300Y-76700D03*
X105000Y-73200D03*
X105000Y-72200D03*
X105000Y-69200D03*
X30300Y-58500D03*
X30300Y-48500D03*
X22000Y-57000D03*
X30300Y-56500D03*
X30300Y-57500D03*
X30300Y-70700D03*
X30300Y-71700D03*
X30300Y-74700D03*
X30300Y-75700D03*
X119400Y-77200D03*
X113500Y-74200D03*
X106200Y-54500D03*
X113500Y-80200D03*
X119400Y-78200D03*
X113500Y-75200D03*
X113500Y-72200D03*
X119700Y-58300D03*
X119700Y-46100D03*
X115600Y-44300D03*
X118700Y-40300D03*
X109200Y-54500D03*
X113500Y-82200D03*
X103200Y-54500D03*
X101200Y-54500D03*
X91800Y-63900D03*
X87800Y-63900D03*
X84800Y-63900D03*
X85000Y-54500D03*
X82000Y-54500D03*
X79000Y-54500D03*
X21900Y-49600D03*
X69500Y-26800D03*
X72500Y-26800D03*
X74500Y-26800D03*
X75500Y-32300D03*
X78500Y-32300D03*
X81700Y-26800D03*
X84700Y-26800D03*
X87700Y-26800D03*
X21900Y-47600D03*
X75000Y-54500D03*
X22000Y-58000D03*
X22000Y-64600D03*
X22000Y-71200D03*
X22000Y-74200D03*
X22000Y-77800D03*
X22000Y-79800D03*
X29250Y-33750D03*
X27250Y-33750D03*
X63500Y-26800D03*
X90700Y-32300D03*
X89700Y-32300D03*
X88700Y-32300D03*
X87700Y-32300D03*
X85700Y-26800D03*
X82700Y-26800D03*
X79500Y-32300D03*
X70500Y-26800D03*
X67500Y-26800D03*
X94700Y-32300D03*
X59500Y-26800D03*
X58500Y-32300D03*
X54500Y-32300D03*
X52500Y-26900D03*
X49500Y-26900D03*
X41500Y-32300D03*
X40500Y-26900D03*
X38500Y-26900D03*
X65900Y-65900D03*
X60900Y-54500D03*
X56900Y-54500D03*
X52900Y-54500D03*
X49900Y-54500D03*
X46900Y-54500D03*
X72900Y-65900D03*
X69900Y-65900D03*
X67900Y-65900D03*
X66500Y-26800D03*
X44800Y-63900D03*
X41800Y-63900D03*
X38800Y-63900D03*
X34800Y-63900D03*
X117400Y-32300D03*
X113500Y-26800D03*
X110500Y-26800D03*
X107500Y-32300D03*
X30300Y-80700D03*
X119700Y-51100D03*
X119700Y-50100D03*
X119700Y-55300D03*
X119700Y-54300D03*
X119700Y-63400D03*
X113500Y-73200D03*
X119400Y-76200D03*
X119400Y-79200D03*
X30300Y-78700D03*
X118700Y-46100D03*
X30300Y-82700D03*
X112700Y-65600D03*
X112700Y-63600D03*
X112700Y-61600D03*
X112700Y-59600D03*
X21900Y-38300D03*
X68900Y-65900D03*
X71900Y-65900D03*
X22000Y-85600D03*
X21900Y-48600D03*
X21900Y-41300D03*
X22000Y-82600D03*
X22000Y-78800D03*
X113500Y-81200D03*
X113500Y-83200D03*
X28250Y-33750D03*
X119300Y-67800D03*
X119300Y-69800D03*
X45900Y-54500D03*
X22000Y-83600D03*
X99200Y-54500D03*
X100200Y-54500D03*
X102200Y-54500D03*
X104200Y-54500D03*
X107200Y-54500D03*
X114600Y-38600D03*
X119700Y-40300D03*
X59900Y-65900D03*
X108500Y-32300D03*
X111500Y-32300D03*
X114500Y-26800D03*
X118400Y-32300D03*
X35800Y-63900D03*
X39800Y-63900D03*
X42800Y-63900D03*
X45800Y-63900D03*
X47800Y-63900D03*
X105500Y-26800D03*
X61900Y-65900D03*
X47500Y-32300D03*
X48500Y-26900D03*
X51500Y-26900D03*
X54500Y-26900D03*
X57500Y-32300D03*
X61500Y-32300D03*
X62500Y-26800D03*
X87000Y-54500D03*
X48900Y-54500D03*
X51900Y-54500D03*
X54900Y-54500D03*
X58900Y-54500D03*
X73000Y-54500D03*
X77000Y-54500D03*
X81000Y-54500D03*
X84000Y-54500D03*
X37500Y-26900D03*
X86800Y-63900D03*
X90800Y-63900D03*
X94800Y-63900D03*
X97800Y-63900D03*
X92700Y-32300D03*
X95700Y-26800D03*
X98700Y-26800D03*
X101700Y-26800D03*
G54D11*
X24700Y-28900D03*
X32300Y-86100D03*
X116800Y-85900D03*
X116800Y-29500D03*
X68500Y-71500D03*
X57400Y-29000D03*
G54D13*
X93900Y-86900D03*
X93900Y-84931D03*
X95868Y-84931D03*
X95868Y-86900D03*
X83300Y-86900D03*
X83300Y-84931D03*
X85268Y-84931D03*
X85268Y-86900D03*
X38200Y-86500D03*
X38200Y-84531D03*
X40168Y-84531D03*
X40168Y-86500D03*
X45000Y-86500D03*
X45000Y-84531D03*
X46968Y-84531D03*
X46968Y-86500D03*
G54D14*
X65700Y-82400D03*
X65700Y-80400D03*
X57700Y-77400D03*
X57700Y-81400D03*
X57700Y-85400D03*
X65700Y-85400D03*
G54D15*
X89800Y-85651D03*
X89800Y-76148D03*
G54D16*
X74788Y-84555D03*
X76600Y-84555D03*
X78411Y-84555D03*
X74788Y-86800D03*
X76600Y-86800D03*
X78411Y-86800D03*
G54D17*
X41915Y-77800D03*
X43884Y-77800D03*
X84200Y-81284D03*
X84200Y-79315D03*
G54D18*
X80187Y-78647D03*
X79400Y-81600D03*
G54D11*
X88200Y-71500D03*
X48800Y-71500D03*
X36300Y-75700D03*
X97400Y-75900D03*
G54D19*
X76100Y-59500D02*
X91400Y-59500D01*
X97950Y-48850D02*
X98850Y-48850D01*
X91400Y-59500D02*
X93300Y-57600D01*
X93300Y-57600D02*
X93300Y-53500D01*
X93300Y-53500D02*
X97950Y-48850D01*
X70900Y-65900D02*
X70900Y-64700D01*
X98850Y-48850D02*
X115400Y-32300D01*
X70900Y-64700D02*
X76100Y-59500D01*
X77000Y-61400D02*
X92100Y-61400D01*
X72900Y-65900D02*
X72900Y-65500D01*
X92100Y-61400D02*
X95200Y-58300D01*
X95200Y-58300D02*
X95200Y-54600D01*
X95200Y-54600D02*
X98800Y-51000D01*
X98800Y-51000D02*
X99500Y-51000D01*
X117400Y-33100D02*
X99500Y-51000D01*
X117400Y-32900D02*
X117400Y-32300D01*
X117400Y-32900D02*
X117400Y-33100D01*
X72900Y-65500D02*
X77000Y-61400D01*
X91700Y-60400D02*
X76600Y-60400D01*
X71900Y-65900D02*
X71900Y-65100D01*
X91700Y-60400D02*
X94200Y-57900D01*
X94200Y-57900D02*
X94200Y-54000D01*
X94200Y-54000D02*
X98200Y-50000D01*
X99100Y-50000D02*
X110200Y-38900D01*
X99100Y-50000D02*
X98200Y-50000D01*
X71900Y-65100D02*
X76600Y-60400D01*
X110200Y-38900D02*
X110200Y-38900D01*
X116400Y-32700D02*
X116400Y-32300D01*
X110200Y-38900D02*
X116400Y-32700D01*
X74600Y-55700D02*
X87800Y-55700D01*
X95400Y-44500D02*
X88400Y-51500D01*
X95400Y-44500D02*
X95900Y-44500D01*
X95900Y-44500D02*
X107500Y-32900D01*
G54D20*
X107500Y-32300D02*
X107500Y-32900D01*
G54D19*
X88400Y-51500D02*
X88400Y-55100D01*
X88400Y-55100D02*
X87800Y-55700D01*
X66900Y-63400D02*
X66900Y-65900D01*
X74600Y-55700D02*
X66900Y-63400D01*
X67800Y-31900D02*
X71500Y-28200D01*
X71500Y-28200D02*
X71500Y-26800D01*
X44800Y-56800D02*
X43600Y-55600D01*
X43600Y-45500D02*
X44800Y-44300D01*
X43600Y-55600D02*
X43600Y-45500D01*
X44800Y-63900D02*
X44800Y-56800D01*
X47500Y-41600D02*
X61000Y-41600D01*
X47500Y-41600D02*
X44800Y-44300D01*
X67800Y-34800D02*
X67800Y-31900D01*
X61000Y-41600D02*
X67800Y-34800D01*
X59500Y-26800D02*
X59500Y-27900D01*
X41800Y-58100D02*
X40600Y-56900D01*
X40600Y-43400D02*
X41800Y-42200D01*
X40600Y-56900D02*
X40600Y-43400D01*
X41800Y-58100D02*
X41800Y-63900D01*
X45300Y-38700D02*
X59100Y-38700D01*
X41800Y-42200D02*
X45300Y-38700D01*
X63000Y-34800D02*
X63000Y-31400D01*
X59100Y-38700D02*
X63000Y-34800D01*
X59500Y-27900D02*
X63000Y-31400D01*
X88400Y-56700D02*
X74900Y-56700D01*
X67900Y-65900D02*
X67900Y-63700D01*
X109500Y-32700D02*
X109500Y-26800D01*
X96600Y-45600D02*
X109500Y-32700D01*
X96000Y-45600D02*
X96600Y-45600D01*
X89700Y-51900D02*
X96000Y-45600D01*
X89700Y-55400D02*
X89700Y-51900D01*
X88400Y-56700D02*
X89700Y-55400D01*
X74900Y-56700D02*
X67900Y-63700D01*
X42800Y-57600D02*
X41600Y-56400D01*
X41600Y-43900D02*
X42800Y-42700D01*
X41600Y-56400D02*
X41600Y-43900D01*
X63500Y-26800D02*
X63500Y-28100D01*
X42800Y-42700D02*
X45800Y-39700D01*
X64100Y-35300D02*
X64100Y-28700D01*
X59700Y-39700D02*
X64100Y-35300D01*
X45800Y-39700D02*
X59700Y-39700D01*
X63500Y-28100D02*
X64100Y-28700D01*
X42800Y-63900D02*
X42800Y-57600D01*
X43800Y-57200D02*
X42600Y-56000D01*
X42600Y-44800D02*
X43800Y-43600D01*
X42600Y-56000D02*
X42600Y-44800D01*
X46800Y-40600D02*
X60500Y-40600D01*
X46800Y-40600D02*
X43800Y-43600D01*
X67500Y-28300D02*
X67500Y-26800D01*
X65900Y-29900D02*
X67500Y-28300D01*
X65900Y-35200D02*
X65900Y-29900D01*
X60500Y-40600D02*
X65900Y-35200D01*
X43800Y-63900D02*
X43800Y-57200D01*
X40800Y-58500D02*
X39600Y-57300D01*
X39600Y-42600D02*
X40800Y-41400D01*
X39600Y-57300D02*
X39600Y-42600D01*
X40800Y-63800D02*
X40800Y-58500D01*
X44500Y-37700D02*
X58300Y-37700D01*
X40800Y-41400D02*
X44500Y-37700D01*
X60500Y-35500D02*
X60500Y-32300D01*
X58300Y-37700D02*
X60500Y-35500D01*
X75300Y-57600D02*
X89500Y-57600D01*
X68900Y-65900D02*
X68900Y-64000D01*
G54D20*
X111500Y-32700D02*
X111500Y-32300D01*
G54D19*
X97500Y-46700D02*
X111500Y-32700D01*
X96600Y-46700D02*
X97500Y-46700D01*
X90800Y-52500D02*
X96600Y-46700D01*
X90800Y-56300D02*
X90800Y-52500D01*
X89500Y-57600D02*
X90800Y-56300D01*
X75300Y-57600D02*
X68900Y-64000D01*
X37800Y-59700D02*
X36600Y-58500D01*
X36600Y-40300D02*
X37800Y-39100D01*
X36600Y-58500D02*
X36600Y-40300D01*
X37800Y-63900D02*
X37800Y-59700D01*
X42100Y-34800D02*
X48900Y-34800D01*
X37800Y-39100D02*
X42100Y-34800D01*
X54500Y-28000D02*
X54500Y-26900D01*
X51700Y-30800D02*
X54500Y-28000D01*
X51700Y-32000D02*
X51700Y-30800D01*
X48900Y-34800D02*
X51700Y-32000D01*
X38800Y-59300D02*
X37600Y-58100D01*
X37600Y-41200D02*
X38800Y-40000D01*
X37600Y-58100D02*
X37600Y-41200D01*
X38800Y-63900D02*
X38800Y-59300D01*
X43000Y-35800D02*
X51000Y-35800D01*
X38800Y-40000D02*
X43000Y-35800D01*
X51000Y-35800D02*
X54500Y-32300D01*
X39800Y-58900D02*
X38600Y-57700D01*
X38600Y-42000D02*
X39800Y-40800D01*
X38600Y-57700D02*
X38600Y-42000D01*
X39800Y-63900D02*
X39800Y-58900D01*
X43800Y-36800D02*
X54500Y-36800D01*
X39800Y-40800D02*
X43800Y-36800D01*
X57500Y-33800D02*
X57500Y-32300D01*
X54500Y-36800D02*
X57500Y-33800D01*
X90500Y-58500D02*
X75700Y-58500D01*
X69900Y-65900D02*
X69900Y-64300D01*
X113500Y-32600D02*
X113500Y-26800D01*
X98300Y-47800D02*
X113500Y-32600D01*
X97400Y-47800D02*
X98300Y-47800D01*
X92100Y-53100D02*
X97400Y-47800D01*
X92100Y-56900D02*
X92100Y-53100D01*
X90500Y-58500D02*
X92100Y-56900D01*
X69900Y-64300D02*
X75700Y-58500D01*
X34800Y-60900D02*
X33600Y-59700D01*
X33600Y-36500D02*
X34800Y-35300D01*
X33600Y-59700D02*
X33600Y-36500D01*
X34800Y-63900D02*
X34800Y-60900D01*
X40500Y-28600D02*
X40500Y-26900D01*
X40500Y-29600D02*
X40500Y-28600D01*
X34800Y-35300D02*
X40500Y-29600D01*
X32600Y-60100D02*
X33800Y-61300D01*
X39500Y-29000D02*
X39500Y-28300D01*
X32600Y-35900D02*
X39500Y-29000D01*
X39500Y-26900D02*
X39500Y-28300D01*
X32600Y-35900D02*
X32600Y-60100D01*
X33800Y-61300D02*
X33800Y-63900D01*
X32800Y-63900D02*
X32200Y-63900D01*
X31600Y-63300D02*
X31600Y-61700D01*
X32200Y-63900D02*
X31600Y-63300D01*
X38500Y-28100D02*
X38500Y-26900D01*
X38500Y-28100D02*
X31600Y-35000D01*
X31600Y-61700D02*
X31600Y-35000D01*
X35800Y-60500D02*
X34600Y-59300D01*
X34600Y-38200D02*
X35800Y-37000D01*
X34600Y-59300D02*
X34600Y-38200D01*
X35800Y-60500D02*
X35800Y-63900D01*
X35800Y-37000D02*
X40500Y-32300D01*
X36800Y-60100D02*
X35600Y-58900D01*
X35600Y-39000D02*
X36800Y-37800D01*
X35600Y-58900D02*
X35600Y-39000D01*
X36800Y-63900D02*
X36800Y-60100D01*
X36800Y-37800D02*
X40700Y-33900D01*
X49500Y-32500D02*
X49500Y-26900D01*
X48100Y-33900D02*
X49500Y-32500D01*
X40700Y-33900D02*
X48100Y-33900D01*
X77700Y-34200D02*
X80900Y-34200D01*
X80900Y-34200D02*
X83700Y-31400D01*
X83700Y-26800D02*
X83700Y-31400D01*
X58900Y-60700D02*
X58900Y-65900D01*
X58900Y-60700D02*
X64200Y-55400D01*
X64200Y-55400D02*
X64200Y-47700D01*
X77700Y-34200D02*
X64200Y-47700D01*
X63000Y-42800D02*
X73500Y-32300D01*
X45800Y-63900D02*
X45800Y-56400D01*
X47900Y-42800D02*
X63000Y-42800D01*
X44600Y-46100D02*
X47900Y-42800D01*
X44600Y-55200D02*
X44600Y-46100D01*
X45800Y-56400D02*
X44600Y-55200D01*
X74500Y-32300D02*
X73500Y-32300D01*
G54D21*
X74500Y-32300D02*
X74400Y-32300D01*
G54D19*
X62200Y-46500D02*
X75500Y-33200D01*
X75500Y-32300D02*
X75500Y-33200D01*
X62200Y-54700D02*
X59700Y-57200D01*
X59700Y-57200D02*
X51800Y-57200D01*
X51800Y-57200D02*
X46800Y-62200D01*
X46800Y-62200D02*
X46800Y-63800D01*
X62200Y-54700D02*
X62200Y-46500D01*
X76500Y-32300D02*
X76600Y-32400D01*
X76600Y-32400D02*
X76600Y-33700D01*
X47800Y-63900D02*
X54300Y-63900D01*
X54300Y-63900D02*
X63200Y-55000D01*
X63200Y-55000D02*
X63200Y-47100D01*
X63200Y-47100D02*
X76600Y-33700D01*
X92800Y-38900D02*
X79700Y-38900D01*
X68000Y-50600D02*
X68000Y-57100D01*
X97700Y-34000D02*
X92800Y-38900D01*
X97700Y-26800D02*
X97700Y-34000D01*
X62900Y-62200D02*
X68000Y-57100D01*
X62900Y-62200D02*
X62900Y-65900D01*
X68000Y-50600D02*
X79700Y-38900D01*
X80200Y-40100D02*
X93600Y-40100D01*
X69000Y-51300D02*
X69000Y-57300D01*
X100700Y-33000D02*
X93600Y-40100D01*
X100700Y-26800D02*
X100700Y-33000D01*
X63900Y-62400D02*
X63900Y-65900D01*
X69000Y-57300D02*
X63900Y-62400D01*
X80200Y-40100D02*
X69000Y-51300D01*
X64900Y-65900D02*
X64900Y-62700D01*
X103500Y-32900D02*
X103500Y-32300D01*
X95000Y-41400D02*
X103500Y-32900D01*
X80500Y-41400D02*
X95000Y-41400D01*
X70000Y-51900D02*
X80500Y-41400D01*
X70000Y-57600D02*
X70000Y-51900D01*
X64900Y-62700D02*
X70000Y-57600D01*
X95700Y-42900D02*
X105500Y-33100D01*
X65900Y-65900D02*
X65900Y-63100D01*
X105500Y-33100D02*
X105500Y-26800D01*
X80800Y-42900D02*
X95700Y-42900D01*
X71000Y-52700D02*
X80800Y-42900D01*
X71000Y-58000D02*
X71000Y-52700D01*
X65900Y-63100D02*
X71000Y-58000D01*
X90300Y-35400D02*
X91700Y-34000D01*
X78200Y-35400D02*
X87700Y-35400D01*
X91700Y-32300D02*
X91700Y-34000D01*
X90300Y-35400D02*
X87700Y-35400D01*
X59900Y-61000D02*
X65200Y-55700D01*
X59900Y-61000D02*
X59900Y-65900D01*
X65200Y-55700D02*
X65200Y-48400D01*
X78200Y-35400D02*
X65200Y-48400D01*
X90800Y-36600D02*
X78700Y-36600D01*
X60900Y-65900D02*
X60900Y-61500D01*
X66200Y-56200D02*
X60900Y-61500D01*
X93700Y-33700D02*
X93700Y-32300D01*
X90800Y-36600D02*
X93700Y-33700D01*
X66200Y-49100D02*
X66200Y-56200D01*
X78700Y-36600D02*
X66200Y-49100D01*
X91900Y-37700D02*
X79200Y-37700D01*
X94700Y-29300D02*
X96000Y-30600D01*
X96000Y-30600D02*
X96000Y-33600D01*
X96000Y-33600D02*
X91900Y-37700D01*
X94700Y-26800D02*
X94700Y-29300D01*
X61900Y-61900D02*
X61900Y-65900D01*
X67000Y-56800D02*
X61900Y-61900D01*
X67000Y-49900D02*
X67000Y-56800D01*
X79200Y-37700D02*
X67000Y-49900D01*
X92500Y-62400D02*
X77400Y-62400D01*
X92500Y-62400D02*
X96400Y-58500D01*
X96400Y-58500D02*
X96400Y-54900D01*
X96400Y-54900D02*
X99300Y-52000D01*
X112450Y-39150D02*
X118400Y-33200D01*
X118400Y-32300D02*
X118400Y-33200D01*
X112450Y-39750D02*
X100200Y-52000D01*
X112450Y-39150D02*
X112450Y-39750D01*
X100200Y-52000D02*
X99300Y-52000D01*
X77400Y-62400D02*
X73900Y-65900D01*
M02*
